<mxfile host="app.diagrams.net" agent="Mozilla/5.0 (Windows NT 10.0; Win64; x64) AppleWebKit/537.36 (KHTML, like Gecko) Chrome/136.0.0.0 Safari/537.36 Edg/136.0.0.0" version="27.1.1">
  <diagram name="Page-1" id="gJ9S5L_rQX5TLNkt6IWA">
    <mxGraphModel dx="4608" dy="2798" grid="1" gridSize="10" guides="1" tooltips="1" connect="1" arrows="1" fold="1" page="1" pageScale="1" pageWidth="827" pageHeight="1169" math="0" shadow="0">
      <root>
        <mxCell id="0" />
        <mxCell id="1" parent="0" />
        <mxCell id="UzzwOPRDWCMKMTii6RTC-44" value="" style="endArrow=none;html=1;rounded=0;entryX=0.927;entryY=1.029;entryDx=0;entryDy=0;entryPerimeter=0;exitX=0.591;exitY=0.027;exitDx=0;exitDy=0;exitPerimeter=0;" parent="1" source="UzzwOPRDWCMKMTii6RTC-49" target="UzzwOPRDWCMKMTii6RTC-1" edge="1">
          <mxGeometry width="50" height="50" relative="1" as="geometry">
            <mxPoint x="-190" y="230" as="sourcePoint" />
            <mxPoint x="620" y="-210" as="targetPoint" />
          </mxGeometry>
        </mxCell>
        <mxCell id="cT-F6GylOhjwORmzsdic-39" value="" style="group" parent="1" vertex="1" connectable="0">
          <mxGeometry x="1170" y="-200" width="400" height="420" as="geometry" />
        </mxCell>
        <mxCell id="UzzwOPRDWCMKMTii6RTC-242" value="" style="rhombus;whiteSpace=wrap;html=1;container=0;" parent="cT-F6GylOhjwORmzsdic-39" vertex="1">
          <mxGeometry x="140" width="100" height="110" as="geometry" />
        </mxCell>
        <mxCell id="UzzwOPRDWCMKMTii6RTC-243" value="Relationship&amp;nbsp;" style="rhombus;whiteSpace=wrap;html=1;container=0;" parent="cT-F6GylOhjwORmzsdic-39" vertex="1">
          <mxGeometry x="150" y="15" width="80" height="80" as="geometry" />
        </mxCell>
        <mxCell id="UzzwOPRDWCMKMTii6RTC-245" value="" style="endArrow=none;html=1;rounded=0;entryX=0.5;entryY=1;entryDx=0;entryDy=0;exitX=0.372;exitY=0.015;exitDx=0;exitDy=0;exitPerimeter=0;" parent="cT-F6GylOhjwORmzsdic-39" source="UzzwOPRDWCMKMTii6RTC-175" target="UzzwOPRDWCMKMTii6RTC-242" edge="1">
          <mxGeometry width="50" height="50" relative="1" as="geometry">
            <mxPoint x="200" y="330" as="sourcePoint" />
            <mxPoint x="190" y="120" as="targetPoint" />
          </mxGeometry>
        </mxCell>
        <mxCell id="UzzwOPRDWCMKMTii6RTC-179" value="Quantity&amp;nbsp;" style="ellipse;whiteSpace=wrap;html=1;container=0;" parent="cT-F6GylOhjwORmzsdic-39" vertex="1">
          <mxGeometry y="180" width="120" height="80" as="geometry" />
        </mxCell>
        <mxCell id="UzzwOPRDWCMKMTii6RTC-180" value="Unit_price&amp;nbsp;" style="ellipse;whiteSpace=wrap;html=1;container=0;" parent="cT-F6GylOhjwORmzsdic-39" vertex="1">
          <mxGeometry x="280" y="180" width="120" height="80" as="geometry" />
        </mxCell>
        <mxCell id="UzzwOPRDWCMKMTii6RTC-181" value="" style="endArrow=none;html=1;rounded=0;entryX=0.604;entryY=0.999;entryDx=0;entryDy=0;entryPerimeter=0;" parent="cT-F6GylOhjwORmzsdic-39" target="UzzwOPRDWCMKMTii6RTC-179" edge="1">
          <mxGeometry width="50" height="50" relative="1" as="geometry">
            <mxPoint x="180" y="340" as="sourcePoint" />
            <mxPoint x="70" y="240" as="targetPoint" />
          </mxGeometry>
        </mxCell>
        <mxCell id="UzzwOPRDWCMKMTii6RTC-182" value="" style="endArrow=none;html=1;rounded=0;exitX=0.75;exitY=0;exitDx=0;exitDy=0;entryX=0.5;entryY=1;entryDx=0;entryDy=0;" parent="cT-F6GylOhjwORmzsdic-39" source="UzzwOPRDWCMKMTii6RTC-175" target="UzzwOPRDWCMKMTii6RTC-180" edge="1">
          <mxGeometry width="50" height="50" relative="1" as="geometry">
            <mxPoint x="20" y="290" as="sourcePoint" />
            <mxPoint x="70" y="240" as="targetPoint" />
          </mxGeometry>
        </mxCell>
        <mxCell id="UzzwOPRDWCMKMTii6RTC-175" value="" style="rounded=0;whiteSpace=wrap;html=1;container=0;" parent="cT-F6GylOhjwORmzsdic-39" vertex="1">
          <mxGeometry x="135" y="340" width="170" height="80" as="geometry" />
        </mxCell>
        <mxCell id="UzzwOPRDWCMKMTii6RTC-176" value="Order _items" style="rounded=0;whiteSpace=wrap;html=1;container=0;" parent="cT-F6GylOhjwORmzsdic-39" vertex="1">
          <mxGeometry x="155" y="350" width="130" height="60" as="geometry" />
        </mxCell>
        <mxCell id="bX12A1Q2ex_Rd5gnfCEQ-13" value="" style="endArrow=none;dashed=1;html=1;dashPattern=1 3;strokeWidth=2;rounded=0;entryX=1;entryY=0.75;entryDx=0;entryDy=0;exitX=0;exitY=0.75;exitDx=0;exitDy=0;" parent="cT-F6GylOhjwORmzsdic-39" source="UzzwOPRDWCMKMTii6RTC-176" target="UzzwOPRDWCMKMTii6RTC-176" edge="1">
          <mxGeometry width="50" height="50" relative="1" as="geometry">
            <mxPoint x="-180" y="532" as="sourcePoint" />
            <mxPoint x="40" y="512" as="targetPoint" />
          </mxGeometry>
        </mxCell>
        <mxCell id="cT-F6GylOhjwORmzsdic-41" value="" style="group" parent="1" vertex="1" connectable="0">
          <mxGeometry x="1360" y="-650" width="400" height="360" as="geometry" />
        </mxCell>
        <mxCell id="UzzwOPRDWCMKMTii6RTC-85" value="" style="endArrow=none;html=1;rounded=0;movable=1;resizable=1;rotatable=1;deletable=1;editable=1;locked=0;connectable=1;" parent="cT-F6GylOhjwORmzsdic-41" edge="1">
          <mxGeometry width="50" height="50" relative="1" as="geometry">
            <mxPoint x="60" y="170" as="sourcePoint" />
            <mxPoint x="60" y="80" as="targetPoint" />
          </mxGeometry>
        </mxCell>
        <mxCell id="UzzwOPRDWCMKMTii6RTC-11" value="Admin" style="rounded=0;whiteSpace=wrap;html=1;container=0;movable=1;resizable=1;rotatable=1;deletable=1;editable=1;locked=0;connectable=1;" parent="cT-F6GylOhjwORmzsdic-41" vertex="1">
          <mxGeometry x="-10" y="170" width="120" height="60" as="geometry" />
        </mxCell>
        <mxCell id="UzzwOPRDWCMKMTii6RTC-67" value="&lt;u&gt;Admin_id&lt;/u&gt;" style="ellipse;whiteSpace=wrap;html=1;container=0;movable=1;resizable=1;rotatable=1;deletable=1;editable=1;locked=0;connectable=1;" parent="cT-F6GylOhjwORmzsdic-41" vertex="1">
          <mxGeometry x="120" width="120" height="80" as="geometry" />
        </mxCell>
        <mxCell id="UzzwOPRDWCMKMTii6RTC-71" value="Role" style="ellipse;whiteSpace=wrap;html=1;container=0;movable=1;resizable=1;rotatable=1;deletable=1;editable=1;locked=0;connectable=1;" parent="cT-F6GylOhjwORmzsdic-41" vertex="1">
          <mxGeometry x="240" y="70" width="120" height="80" as="geometry" />
        </mxCell>
        <mxCell id="UzzwOPRDWCMKMTii6RTC-72" value="Hire_Data" style="ellipse;whiteSpace=wrap;html=1;container=0;movable=1;resizable=1;rotatable=1;deletable=1;editable=1;locked=0;connectable=1;" parent="cT-F6GylOhjwORmzsdic-41" vertex="1">
          <mxGeometry x="280" y="170" width="120" height="80" as="geometry" />
        </mxCell>
        <mxCell id="UzzwOPRDWCMKMTii6RTC-73" value="Access _Level" style="ellipse;whiteSpace=wrap;html=1;container=0;movable=1;resizable=1;rotatable=1;deletable=1;editable=1;locked=0;connectable=1;" parent="cT-F6GylOhjwORmzsdic-41" vertex="1">
          <mxGeometry x="190" y="280" width="120" height="80" as="geometry" />
        </mxCell>
        <mxCell id="UzzwOPRDWCMKMTii6RTC-74" value="" style="endArrow=none;html=1;rounded=0;entryX=0.07;entryY=0.736;entryDx=0;entryDy=0;entryPerimeter=0;exitX=1;exitY=0.5;exitDx=0;exitDy=0;movable=1;resizable=1;rotatable=1;deletable=1;editable=1;locked=0;connectable=1;" parent="cT-F6GylOhjwORmzsdic-41" source="UzzwOPRDWCMKMTii6RTC-11" target="UzzwOPRDWCMKMTii6RTC-71" edge="1">
          <mxGeometry width="50" height="50" relative="1" as="geometry">
            <mxPoint x="-50" y="220" as="sourcePoint" />
            <mxPoint y="170" as="targetPoint" />
          </mxGeometry>
        </mxCell>
        <mxCell id="UzzwOPRDWCMKMTii6RTC-75" value="" style="endArrow=none;html=1;rounded=0;entryX=0;entryY=0.5;entryDx=0;entryDy=0;exitX=1;exitY=0.75;exitDx=0;exitDy=0;movable=1;resizable=1;rotatable=1;deletable=1;editable=1;locked=0;connectable=1;" parent="cT-F6GylOhjwORmzsdic-41" source="UzzwOPRDWCMKMTii6RTC-11" target="UzzwOPRDWCMKMTii6RTC-72" edge="1">
          <mxGeometry width="50" height="50" relative="1" as="geometry">
            <mxPoint x="-50" y="220" as="sourcePoint" />
            <mxPoint y="170" as="targetPoint" />
          </mxGeometry>
        </mxCell>
        <mxCell id="UzzwOPRDWCMKMTii6RTC-70" value="" style="endArrow=none;html=1;rounded=0;exitX=0.856;exitY=0.005;exitDx=0;exitDy=0;exitPerimeter=0;movable=1;resizable=1;rotatable=1;deletable=1;editable=1;locked=0;connectable=1;" parent="cT-F6GylOhjwORmzsdic-41" source="UzzwOPRDWCMKMTii6RTC-11" target="UzzwOPRDWCMKMTii6RTC-67" edge="1">
          <mxGeometry width="50" height="50" relative="1" as="geometry">
            <mxPoint x="-50" y="350" as="sourcePoint" />
            <mxPoint y="300" as="targetPoint" />
          </mxGeometry>
        </mxCell>
        <mxCell id="UzzwOPRDWCMKMTii6RTC-76" value="" style="endArrow=none;html=1;rounded=0;exitX=0;exitY=0;exitDx=0;exitDy=0;entryX=0.868;entryY=1.029;entryDx=0;entryDy=0;entryPerimeter=0;movable=1;resizable=1;rotatable=1;deletable=1;editable=1;locked=0;connectable=1;" parent="cT-F6GylOhjwORmzsdic-41" source="UzzwOPRDWCMKMTii6RTC-73" target="UzzwOPRDWCMKMTii6RTC-11" edge="1">
          <mxGeometry width="50" height="50" relative="1" as="geometry">
            <mxPoint x="-50" y="220" as="sourcePoint" />
            <mxPoint y="170" as="targetPoint" />
          </mxGeometry>
        </mxCell>
        <mxCell id="UzzwOPRDWCMKMTii6RTC-90" value="" style="endArrow=none;html=1;rounded=0;entryX=0.5;entryY=1;entryDx=0;entryDy=0;" parent="1" target="UzzwOPRDWCMKMTii6RTC-88" edge="1">
          <mxGeometry width="50" height="50" relative="1" as="geometry">
            <mxPoint x="20" y="-252" as="sourcePoint" />
            <mxPoint x="870" y="-160" as="targetPoint" />
          </mxGeometry>
        </mxCell>
        <mxCell id="hly1FXEma_6dyXH1mRlF-6" value="M" style="edgeLabel;html=1;align=center;verticalAlign=middle;resizable=0;points=[];" parent="UzzwOPRDWCMKMTii6RTC-90" vertex="1" connectable="0">
          <mxGeometry x="0.0099" relative="1" as="geometry">
            <mxPoint x="-10" y="-3" as="offset" />
          </mxGeometry>
        </mxCell>
        <mxCell id="UzzwOPRDWCMKMTii6RTC-100" value="" style="endArrow=none;html=1;rounded=0;entryX=0;entryY=1;entryDx=0;entryDy=0;exitX=0.75;exitY=0;exitDx=0;exitDy=0;" parent="1" source="UzzwOPRDWCMKMTii6RTC-5" target="UzzwOPRDWCMKMTii6RTC-78" edge="1">
          <mxGeometry width="50" height="50" relative="1" as="geometry">
            <mxPoint x="610" y="170" as="sourcePoint" />
            <mxPoint x="540" y="-140" as="targetPoint" />
          </mxGeometry>
        </mxCell>
        <mxCell id="UzzwOPRDWCMKMTii6RTC-101" value="" style="endArrow=none;html=1;rounded=0;entryX=0.06;entryY=0.768;entryDx=0;entryDy=0;entryPerimeter=0;exitX=1;exitY=0;exitDx=0;exitDy=0;" parent="1" source="UzzwOPRDWCMKMTii6RTC-5" target="UzzwOPRDWCMKMTii6RTC-95" edge="1">
          <mxGeometry width="50" height="50" relative="1" as="geometry">
            <mxPoint x="610" y="170" as="sourcePoint" />
            <mxPoint x="660" y="120" as="targetPoint" />
          </mxGeometry>
        </mxCell>
        <mxCell id="UzzwOPRDWCMKMTii6RTC-99" value="" style="endArrow=none;html=1;rounded=0;entryX=1;entryY=0.5;entryDx=0;entryDy=0;exitX=0;exitY=0.5;exitDx=0;exitDy=0;" parent="1" source="UzzwOPRDWCMKMTii6RTC-96" target="UzzwOPRDWCMKMTii6RTC-5" edge="1">
          <mxGeometry width="50" height="50" relative="1" as="geometry">
            <mxPoint x="610" y="170" as="sourcePoint" />
            <mxPoint x="660" y="120" as="targetPoint" />
          </mxGeometry>
        </mxCell>
        <mxCell id="UzzwOPRDWCMKMTii6RTC-5" value="Order" style="rounded=0;whiteSpace=wrap;html=1;container=0;" parent="1" vertex="1">
          <mxGeometry x="-40" y="-250" width="120" height="60" as="geometry" />
        </mxCell>
        <mxCell id="cT-F6GylOhjwORmzsdic-52" value="" style="endArrow=none;html=1;rounded=0;exitX=1;exitY=0.5;exitDx=0;exitDy=0;" parent="1" source="UzzwOPRDWCMKMTii6RTC-1" edge="1">
          <mxGeometry width="50" height="50" relative="1" as="geometry">
            <mxPoint x="-430" y="-480" as="sourcePoint" />
            <mxPoint x="20" y="-510" as="targetPoint" />
          </mxGeometry>
        </mxCell>
        <mxCell id="hly1FXEma_6dyXH1mRlF-5" value="1" style="edgeLabel;html=1;align=center;verticalAlign=middle;resizable=0;points=[];" parent="cT-F6GylOhjwORmzsdic-52" vertex="1" connectable="0">
          <mxGeometry x="-0.2054" y="-1" relative="1" as="geometry">
            <mxPoint y="-11" as="offset" />
          </mxGeometry>
        </mxCell>
        <mxCell id="cT-F6GylOhjwORmzsdic-53" value="" style="endArrow=none;html=1;rounded=0;entryX=0.5;entryY=0;entryDx=0;entryDy=0;exitX=1;exitY=0.75;exitDx=0;exitDy=0;" parent="1" source="UzzwOPRDWCMKMTii6RTC-5" target="UzzwOPRDWCMKMTii6RTC-242" edge="1">
          <mxGeometry width="50" height="50" relative="1" as="geometry">
            <mxPoint x="170" y="-200" as="sourcePoint" />
            <mxPoint x="1030" y="200" as="targetPoint" />
          </mxGeometry>
        </mxCell>
        <mxCell id="cT-F6GylOhjwORmzsdic-54" value="" style="group" parent="1" vertex="1" connectable="0">
          <mxGeometry x="-950" y="-149" width="564" height="237" as="geometry" />
        </mxCell>
        <mxCell id="UzzwOPRDWCMKMTii6RTC-54" value="Street&amp;nbsp;" style="ellipse;whiteSpace=wrap;html=1;container=0;" parent="cT-F6GylOhjwORmzsdic-54" vertex="1">
          <mxGeometry y="157" width="120" height="80" as="geometry" />
        </mxCell>
        <mxCell id="UzzwOPRDWCMKMTii6RTC-56" value="City&amp;nbsp;" style="ellipse;whiteSpace=wrap;html=1;container=0;" parent="cT-F6GylOhjwORmzsdic-54" vertex="1">
          <mxGeometry x="150" y="157" width="120" height="80" as="geometry" />
        </mxCell>
        <mxCell id="UzzwOPRDWCMKMTii6RTC-58" value="Zip&amp;nbsp;" style="ellipse;whiteSpace=wrap;html=1;container=0;" parent="cT-F6GylOhjwORmzsdic-54" vertex="1">
          <mxGeometry x="444" y="157" width="120" height="80" as="geometry" />
        </mxCell>
        <mxCell id="UzzwOPRDWCMKMTii6RTC-63" value="" style="endArrow=none;html=1;rounded=0;exitX=0.383;exitY=0;exitDx=0;exitDy=0;exitPerimeter=0;" parent="cT-F6GylOhjwORmzsdic-54" source="UzzwOPRDWCMKMTii6RTC-58" edge="1">
          <mxGeometry width="50" height="50" relative="1" as="geometry">
            <mxPoint x="500" y="127" as="sourcePoint" />
            <mxPoint x="310" y="77" as="targetPoint" />
          </mxGeometry>
        </mxCell>
        <mxCell id="UzzwOPRDWCMKMTii6RTC-64" value="" style="endArrow=none;html=1;rounded=0;exitX=0.594;exitY=-0.014;exitDx=0;exitDy=0;exitPerimeter=0;" parent="cT-F6GylOhjwORmzsdic-54" edge="1">
          <mxGeometry width="50" height="50" relative="1" as="geometry">
            <mxPoint x="371.27999999999975" y="155.8800000000001" as="sourcePoint" />
            <mxPoint x="290" y="87" as="targetPoint" />
          </mxGeometry>
        </mxCell>
        <mxCell id="UzzwOPRDWCMKMTii6RTC-65" value="" style="endArrow=none;html=1;rounded=0;entryX=0.413;entryY=1.016;entryDx=0;entryDy=0;entryPerimeter=0;" parent="cT-F6GylOhjwORmzsdic-54" target="UzzwOPRDWCMKMTii6RTC-49" edge="1">
          <mxGeometry width="50" height="50" relative="1" as="geometry">
            <mxPoint x="208" y="154" as="sourcePoint" />
            <mxPoint x="208" y="107" as="targetPoint" />
          </mxGeometry>
        </mxCell>
        <mxCell id="UzzwOPRDWCMKMTii6RTC-66" value="" style="endArrow=none;html=1;rounded=0;exitX=0.5;exitY=0;exitDx=0;exitDy=0;" parent="cT-F6GylOhjwORmzsdic-54" source="UzzwOPRDWCMKMTii6RTC-54" edge="1">
          <mxGeometry width="50" height="50" relative="1" as="geometry">
            <mxPoint x="500" y="127" as="sourcePoint" />
            <mxPoint x="180" y="97" as="targetPoint" />
          </mxGeometry>
        </mxCell>
        <mxCell id="UzzwOPRDWCMKMTii6RTC-79" value="Country&amp;nbsp;" style="ellipse;whiteSpace=wrap;html=1;container=0;" parent="cT-F6GylOhjwORmzsdic-54" vertex="1">
          <mxGeometry x="310" y="157" width="120" height="80" as="geometry" />
        </mxCell>
        <mxCell id="UzzwOPRDWCMKMTii6RTC-49" value="" style="ellipse;whiteSpace=wrap;html=1;container=0;" parent="cT-F6GylOhjwORmzsdic-54" vertex="1">
          <mxGeometry x="130" width="190" height="100" as="geometry" />
        </mxCell>
        <mxCell id="UzzwOPRDWCMKMTii6RTC-50" value="Shopping _Address&amp;nbsp;" style="ellipse;whiteSpace=wrap;html=1;container=0;" parent="cT-F6GylOhjwORmzsdic-54" vertex="1">
          <mxGeometry x="140" y="10" width="170" height="80" as="geometry" />
        </mxCell>
        <mxCell id="UzzwOPRDWCMKMTii6RTC-51" style="edgeStyle=orthogonalEdgeStyle;rounded=0;orthogonalLoop=1;jettySize=auto;html=1;exitX=0.5;exitY=1;exitDx=0;exitDy=0;" parent="cT-F6GylOhjwORmzsdic-54" source="UzzwOPRDWCMKMTii6RTC-49" target="UzzwOPRDWCMKMTii6RTC-49" edge="1">
          <mxGeometry relative="1" as="geometry" />
        </mxCell>
        <mxCell id="cT-F6GylOhjwORmzsdic-55" value="" style="group" parent="1" vertex="1" connectable="0">
          <mxGeometry x="-55" y="118" width="350" height="550" as="geometry" />
        </mxCell>
        <mxCell id="UzzwOPRDWCMKMTii6RTC-6" value="Payment" style="rounded=0;whiteSpace=wrap;html=1;container=0;" parent="cT-F6GylOhjwORmzsdic-55" vertex="1">
          <mxGeometry x="10" y="230" width="120" height="60" as="geometry" />
        </mxCell>
        <mxCell id="UzzwOPRDWCMKMTii6RTC-102" value="Processes&amp;nbsp;" style="rhombus;whiteSpace=wrap;html=1;container=0;" parent="cT-F6GylOhjwORmzsdic-55" vertex="1">
          <mxGeometry x="30" width="80" height="80" as="geometry" />
        </mxCell>
        <mxCell id="UzzwOPRDWCMKMTii6RTC-107" value="" style="endArrow=none;html=1;rounded=0;exitX=0.5;exitY=0;exitDx=0;exitDy=0;entryX=0.5;entryY=1;entryDx=0;entryDy=0;" parent="cT-F6GylOhjwORmzsdic-55" source="UzzwOPRDWCMKMTii6RTC-6" target="UzzwOPRDWCMKMTii6RTC-102" edge="1">
          <mxGeometry width="50" height="50" relative="1" as="geometry">
            <mxPoint x="230" y="370" as="sourcePoint" />
            <mxPoint x="280" y="320" as="targetPoint" />
          </mxGeometry>
        </mxCell>
        <mxCell id="hly1FXEma_6dyXH1mRlF-4" value="1" style="edgeLabel;html=1;align=center;verticalAlign=middle;resizable=0;points=[];" parent="UzzwOPRDWCMKMTii6RTC-107" vertex="1" connectable="0">
          <mxGeometry x="0.2036" y="-3" relative="1" as="geometry">
            <mxPoint y="1" as="offset" />
          </mxGeometry>
        </mxCell>
        <mxCell id="UzzwOPRDWCMKMTii6RTC-108" value="&lt;u&gt;Payment _Id&lt;/u&gt;" style="ellipse;whiteSpace=wrap;html=1;container=0;" parent="cT-F6GylOhjwORmzsdic-55" vertex="1">
          <mxGeometry x="130" y="113" width="120" height="80" as="geometry" />
        </mxCell>
        <mxCell id="UzzwOPRDWCMKMTii6RTC-111" value="Payment_method&amp;nbsp;" style="ellipse;whiteSpace=wrap;html=1;container=0;" parent="cT-F6GylOhjwORmzsdic-55" vertex="1">
          <mxGeometry x="230" y="180" width="120" height="80" as="geometry" />
        </mxCell>
        <mxCell id="UzzwOPRDWCMKMTii6RTC-112" value="Amount" style="ellipse;whiteSpace=wrap;html=1;container=0;" parent="cT-F6GylOhjwORmzsdic-55" vertex="1">
          <mxGeometry x="220" y="310" width="120" height="80" as="geometry" />
        </mxCell>
        <mxCell id="UzzwOPRDWCMKMTii6RTC-113" value="Payment _method" style="ellipse;whiteSpace=wrap;html=1;container=0;" parent="cT-F6GylOhjwORmzsdic-55" vertex="1">
          <mxGeometry x="195" y="400" width="120" height="80" as="geometry" />
        </mxCell>
        <mxCell id="UzzwOPRDWCMKMTii6RTC-114" value="Status&amp;nbsp;" style="ellipse;whiteSpace=wrap;html=1;container=0;" parent="cT-F6GylOhjwORmzsdic-55" vertex="1">
          <mxGeometry x="120" y="470" width="120" height="80" as="geometry" />
        </mxCell>
        <mxCell id="UzzwOPRDWCMKMTii6RTC-115" value="Transaction _Id" style="ellipse;whiteSpace=wrap;html=1;container=0;" parent="cT-F6GylOhjwORmzsdic-55" vertex="1">
          <mxGeometry y="430" width="120" height="80" as="geometry" />
        </mxCell>
        <mxCell id="UzzwOPRDWCMKMTii6RTC-116" value="" style="endArrow=none;html=1;rounded=0;entryX=0.25;entryY=1;entryDx=0;entryDy=0;exitX=0.5;exitY=0;exitDx=0;exitDy=0;" parent="cT-F6GylOhjwORmzsdic-55" source="UzzwOPRDWCMKMTii6RTC-115" target="UzzwOPRDWCMKMTii6RTC-6" edge="1">
          <mxGeometry width="50" height="50" relative="1" as="geometry">
            <mxPoint x="160" y="550" as="sourcePoint" />
            <mxPoint x="210" y="310" as="targetPoint" />
          </mxGeometry>
        </mxCell>
        <mxCell id="UzzwOPRDWCMKMTii6RTC-117" value="" style="endArrow=none;html=1;rounded=0;exitX=0.5;exitY=0;exitDx=0;exitDy=0;entryX=0.625;entryY=1.05;entryDx=0;entryDy=0;entryPerimeter=0;" parent="cT-F6GylOhjwORmzsdic-55" source="UzzwOPRDWCMKMTii6RTC-114" target="UzzwOPRDWCMKMTii6RTC-6" edge="1">
          <mxGeometry width="50" height="50" relative="1" as="geometry">
            <mxPoint x="160" y="360" as="sourcePoint" />
            <mxPoint x="210" y="310" as="targetPoint" />
          </mxGeometry>
        </mxCell>
        <mxCell id="UzzwOPRDWCMKMTii6RTC-118" value="" style="endArrow=none;html=1;rounded=0;exitX=0;exitY=0;exitDx=0;exitDy=0;entryX=1;entryY=1;entryDx=0;entryDy=0;" parent="cT-F6GylOhjwORmzsdic-55" source="UzzwOPRDWCMKMTii6RTC-113" target="UzzwOPRDWCMKMTii6RTC-6" edge="1">
          <mxGeometry width="50" height="50" relative="1" as="geometry">
            <mxPoint x="460" y="360" as="sourcePoint" />
            <mxPoint x="510" y="310" as="targetPoint" />
          </mxGeometry>
        </mxCell>
        <mxCell id="UzzwOPRDWCMKMTii6RTC-119" value="" style="endArrow=none;html=1;rounded=0;exitX=0.75;exitY=0;exitDx=0;exitDy=0;entryX=0.258;entryY=1.013;entryDx=0;entryDy=0;entryPerimeter=0;" parent="cT-F6GylOhjwORmzsdic-55" source="UzzwOPRDWCMKMTii6RTC-6" target="UzzwOPRDWCMKMTii6RTC-108" edge="1">
          <mxGeometry width="50" height="50" relative="1" as="geometry">
            <mxPoint x="460" y="360" as="sourcePoint" />
            <mxPoint x="510" y="310" as="targetPoint" />
          </mxGeometry>
        </mxCell>
        <mxCell id="UzzwOPRDWCMKMTii6RTC-121" value="" style="endArrow=none;html=1;rounded=0;exitX=1;exitY=0.5;exitDx=0;exitDy=0;entryX=0;entryY=1;entryDx=0;entryDy=0;" parent="cT-F6GylOhjwORmzsdic-55" source="UzzwOPRDWCMKMTii6RTC-6" target="UzzwOPRDWCMKMTii6RTC-111" edge="1">
          <mxGeometry width="50" height="50" relative="1" as="geometry">
            <mxPoint x="460" y="360" as="sourcePoint" />
            <mxPoint x="510" y="310" as="targetPoint" />
          </mxGeometry>
        </mxCell>
        <mxCell id="UzzwOPRDWCMKMTii6RTC-122" value="" style="endArrow=none;html=1;rounded=0;exitX=1;exitY=0.75;exitDx=0;exitDy=0;entryX=0;entryY=0;entryDx=0;entryDy=0;" parent="cT-F6GylOhjwORmzsdic-55" source="UzzwOPRDWCMKMTii6RTC-6" target="UzzwOPRDWCMKMTii6RTC-112" edge="1">
          <mxGeometry width="50" height="50" relative="1" as="geometry">
            <mxPoint x="460" y="360" as="sourcePoint" />
            <mxPoint x="510" y="310" as="targetPoint" />
          </mxGeometry>
        </mxCell>
        <mxCell id="cT-F6GylOhjwORmzsdic-58" value="" style="endArrow=none;html=1;rounded=0;entryX=0.5;entryY=1;entryDx=0;entryDy=0;exitX=0.5;exitY=0;exitDx=0;exitDy=0;" parent="1" target="UzzwOPRDWCMKMTii6RTC-5" edge="1" source="UzzwOPRDWCMKMTii6RTC-102">
          <mxGeometry width="50" height="50" relative="1" as="geometry">
            <mxPoint x="20" y="120" as="sourcePoint" />
            <mxPoint x="800" y="130" as="targetPoint" />
          </mxGeometry>
        </mxCell>
        <mxCell id="hly1FXEma_6dyXH1mRlF-1" value="1" style="edgeLabel;html=1;align=center;verticalAlign=middle;resizable=0;points=[];" parent="cT-F6GylOhjwORmzsdic-58" vertex="1" connectable="0">
          <mxGeometry x="-0.095" y="-3" relative="1" as="geometry">
            <mxPoint as="offset" />
          </mxGeometry>
        </mxCell>
        <mxCell id="UzzwOPRDWCMKMTii6RTC-41" value="Loyalty Points&amp;nbsp;" style="ellipse;whiteSpace=wrap;html=1;container=0;movable=1;resizable=1;rotatable=1;deletable=1;editable=1;locked=0;connectable=1;" parent="1" vertex="1">
          <mxGeometry x="-710" y="-450" width="120" height="80" as="geometry" />
        </mxCell>
        <mxCell id="UzzwOPRDWCMKMTii6RTC-21" value="" style="endArrow=none;html=1;rounded=0;movable=1;resizable=1;rotatable=1;deletable=1;editable=1;locked=0;connectable=1;" parent="1" edge="1">
          <mxGeometry width="50" height="50" relative="1" as="geometry">
            <mxPoint x="-490" y="-580" as="sourcePoint" />
            <mxPoint x="1420" y="-570" as="targetPoint" />
          </mxGeometry>
        </mxCell>
        <mxCell id="UzzwOPRDWCMKMTii6RTC-1" value="Customer" style="rounded=0;whiteSpace=wrap;html=1;container=0;movable=1;resizable=1;rotatable=1;deletable=1;editable=1;locked=0;connectable=1;" parent="1" vertex="1">
          <mxGeometry x="-540" y="-540" width="120" height="60" as="geometry" />
        </mxCell>
        <mxCell id="UzzwOPRDWCMKMTii6RTC-22" value="" style="endArrow=none;html=1;rounded=0;exitX=0.5;exitY=0;exitDx=0;exitDy=0;movable=1;resizable=1;rotatable=1;deletable=1;editable=1;locked=0;connectable=1;" parent="1" source="UzzwOPRDWCMKMTii6RTC-1" edge="1">
          <mxGeometry width="50" height="50" relative="1" as="geometry">
            <mxPoint x="-340" y="-480" as="sourcePoint" />
            <mxPoint x="-480" y="-580" as="targetPoint" />
          </mxGeometry>
        </mxCell>
        <mxCell id="UzzwOPRDWCMKMTii6RTC-35" value="&lt;u&gt;Customer_Id&lt;/u&gt;" style="ellipse;whiteSpace=wrap;html=1;container=0;movable=1;resizable=1;rotatable=1;deletable=1;editable=1;locked=0;connectable=1;" parent="1" vertex="1">
          <mxGeometry x="-670" y="-670" width="120" height="80" as="geometry" />
        </mxCell>
        <mxCell id="UzzwOPRDWCMKMTii6RTC-36" value="" style="endArrow=none;html=1;rounded=0;movable=1;resizable=1;rotatable=1;deletable=1;editable=1;locked=0;connectable=1;" parent="1" source="UzzwOPRDWCMKMTii6RTC-1" target="UzzwOPRDWCMKMTii6RTC-35" edge="1">
          <mxGeometry width="50" height="50" relative="1" as="geometry">
            <mxPoint x="-340" y="-460" as="sourcePoint" />
            <mxPoint x="-290" y="-510" as="targetPoint" />
          </mxGeometry>
        </mxCell>
        <mxCell id="UzzwOPRDWCMKMTii6RTC-37" value="Date_Of_Birth" style="ellipse;whiteSpace=wrap;html=1;container=0;movable=1;resizable=1;rotatable=1;deletable=1;editable=1;locked=0;connectable=1;" parent="1" vertex="1">
          <mxGeometry x="-680" y="-570" width="120" height="80" as="geometry" />
        </mxCell>
        <mxCell id="UzzwOPRDWCMKMTii6RTC-38" value="" style="endArrow=none;html=1;rounded=0;entryX=0.975;entryY=0.725;entryDx=0;entryDy=0;entryPerimeter=0;movable=1;resizable=1;rotatable=1;deletable=1;editable=1;locked=0;connectable=1;" parent="1" target="UzzwOPRDWCMKMTii6RTC-37" edge="1">
          <mxGeometry width="50" height="50" relative="1" as="geometry">
            <mxPoint x="-540" y="-500" as="sourcePoint" />
            <mxPoint x="-290" y="-510" as="targetPoint" />
          </mxGeometry>
        </mxCell>
        <mxCell id="UzzwOPRDWCMKMTii6RTC-42" value="Regression_Date" style="ellipse;whiteSpace=wrap;html=1;container=0;movable=1;resizable=1;rotatable=1;deletable=1;editable=1;locked=0;connectable=1;" parent="1" vertex="1">
          <mxGeometry x="-750" y="-320" width="120" height="80" as="geometry" />
        </mxCell>
        <mxCell id="UzzwOPRDWCMKMTii6RTC-43" value="" style="endArrow=none;html=1;rounded=0;entryX=0.5;entryY=1;entryDx=0;entryDy=0;movable=1;resizable=1;rotatable=1;deletable=1;editable=1;locked=0;connectable=1;" parent="1" target="UzzwOPRDWCMKMTii6RTC-1" edge="1">
          <mxGeometry width="50" height="50" relative="1" as="geometry">
            <mxPoint x="-600" y="-430" as="sourcePoint" />
            <mxPoint x="-500" y="-470" as="targetPoint" />
          </mxGeometry>
        </mxCell>
        <mxCell id="UzzwOPRDWCMKMTii6RTC-45" value="" style="endArrow=none;html=1;rounded=0;exitX=0.75;exitY=0;exitDx=0;exitDy=0;exitPerimeter=0;entryX=0.75;entryY=1;entryDx=0;entryDy=0;movable=1;resizable=1;rotatable=1;deletable=1;editable=1;locked=0;connectable=1;" parent="1" source="UzzwOPRDWCMKMTii6RTC-42" target="UzzwOPRDWCMKMTii6RTC-1" edge="1">
          <mxGeometry width="50" height="50" relative="1" as="geometry">
            <mxPoint x="-280" y="-440" as="sourcePoint" />
            <mxPoint x="-460" y="-470" as="targetPoint" />
          </mxGeometry>
        </mxCell>
        <mxCell id="UzzwOPRDWCMKMTii6RTC-97" value="Total_amount&amp;nbsp;" style="ellipse;whiteSpace=wrap;html=1;container=0;" parent="1" vertex="1">
          <mxGeometry x="-190" y="-470" width="120" height="80" as="geometry" />
        </mxCell>
        <mxCell id="UzzwOPRDWCMKMTii6RTC-96" value="Status" style="ellipse;whiteSpace=wrap;html=1;container=0;" parent="1" vertex="1">
          <mxGeometry x="160" y="-340" width="120" height="80" as="geometry" />
        </mxCell>
        <mxCell id="UzzwOPRDWCMKMTii6RTC-88" value="Places&amp;nbsp;" style="rhombus;whiteSpace=wrap;html=1;container=0;movable=1;resizable=1;rotatable=1;deletable=1;editable=1;locked=0;connectable=1;" parent="1" vertex="1">
          <mxGeometry x="-20" y="-460" width="80" height="80" as="geometry" />
        </mxCell>
        <mxCell id="UzzwOPRDWCMKMTii6RTC-94" value="" style="endArrow=none;html=1;rounded=0;exitX=0.5;exitY=0;exitDx=0;exitDy=0;movable=1;resizable=1;rotatable=1;deletable=1;editable=1;locked=0;connectable=1;" parent="1" source="UzzwOPRDWCMKMTii6RTC-88" edge="1">
          <mxGeometry width="50" height="50" relative="1" as="geometry">
            <mxPoint x="320" y="-420" as="sourcePoint" />
            <mxPoint x="20" y="-510" as="targetPoint" />
          </mxGeometry>
        </mxCell>
        <mxCell id="UzzwOPRDWCMKMTii6RTC-78" value="&lt;u&gt;Order_Id&lt;/u&gt;" style="ellipse;whiteSpace=wrap;html=1;container=0;movable=1;resizable=1;rotatable=1;deletable=1;editable=1;locked=0;connectable=1;" parent="1" vertex="1">
          <mxGeometry x="60" y="-510" width="120" height="80" as="geometry" />
        </mxCell>
        <mxCell id="UzzwOPRDWCMKMTii6RTC-95" value="Order_Date" style="ellipse;whiteSpace=wrap;html=1;container=0;movable=1;resizable=1;rotatable=1;deletable=1;editable=1;locked=0;connectable=1;" parent="1" vertex="1">
          <mxGeometry x="150" y="-430" width="120" height="80" as="geometry" />
        </mxCell>
        <mxCell id="cT-F6GylOhjwORmzsdic-65" value="" style="endArrow=none;html=1;rounded=0;exitX=0.088;exitY=-0.03;exitDx=0;exitDy=0;exitPerimeter=0;entryX=1;entryY=1;entryDx=0;entryDy=0;" parent="1" source="UzzwOPRDWCMKMTii6RTC-5" target="UzzwOPRDWCMKMTii6RTC-97" edge="1">
          <mxGeometry width="50" height="50" relative="1" as="geometry">
            <mxPoint x="210" y="-450" as="sourcePoint" />
            <mxPoint x="260" y="-500" as="targetPoint" />
          </mxGeometry>
        </mxCell>
        <mxCell id="cT-F6GylOhjwORmzsdic-67" value="" style="endArrow=none;html=1;rounded=0;exitX=1;exitY=1;exitDx=0;exitDy=0;" parent="1" source="UzzwOPRDWCMKMTii6RTC-5" edge="1">
          <mxGeometry width="50" height="50" relative="1" as="geometry">
            <mxPoint x="440" y="40" as="sourcePoint" />
            <mxPoint x="560" y="-40" as="targetPoint" />
          </mxGeometry>
        </mxCell>
        <mxCell id="cT-F6GylOhjwORmzsdic-77" value="" style="group" parent="1" vertex="1" connectable="0">
          <mxGeometry x="320" y="-40" width="540" height="490" as="geometry" />
        </mxCell>
        <mxCell id="UzzwOPRDWCMKMTii6RTC-136" value="" style="endArrow=none;html=1;rounded=0;exitX=0.5;exitY=0;exitDx=0;exitDy=0;" parent="cT-F6GylOhjwORmzsdic-77" source="UzzwOPRDWCMKMTii6RTC-129" edge="1">
          <mxGeometry width="50" height="50" relative="1" as="geometry">
            <mxPoint x="40" y="-220" as="sourcePoint" />
            <mxPoint x="240" as="targetPoint" />
          </mxGeometry>
        </mxCell>
        <mxCell id="cT-F6GylOhjwORmzsdic-23" value="" style="endArrow=none;html=1;rounded=0;entryX=0.5;entryY=0;entryDx=0;entryDy=0;" parent="cT-F6GylOhjwORmzsdic-77" target="UzzwOPRDWCMKMTii6RTC-137" edge="1">
          <mxGeometry width="50" height="50" relative="1" as="geometry">
            <mxPoint x="310" y="270" as="sourcePoint" />
            <mxPoint x="460" y="250" as="targetPoint" />
          </mxGeometry>
        </mxCell>
        <mxCell id="UzzwOPRDWCMKMTii6RTC-129" value="Contains&amp;nbsp;" style="rhombus;whiteSpace=wrap;html=1;container=0;" parent="cT-F6GylOhjwORmzsdic-77" vertex="1">
          <mxGeometry x="210" y="10" width="80" height="80" as="geometry" />
        </mxCell>
        <mxCell id="UzzwOPRDWCMKMTii6RTC-2" value="Product" style="rounded=0;whiteSpace=wrap;html=1;container=0;" parent="cT-F6GylOhjwORmzsdic-77" vertex="1">
          <mxGeometry x="200" y="220" width="120" height="60" as="geometry" />
        </mxCell>
        <mxCell id="UzzwOPRDWCMKMTii6RTC-137" value="&lt;u&gt;Product_Id&lt;/u&gt;" style="ellipse;whiteSpace=wrap;html=1;container=0;" parent="cT-F6GylOhjwORmzsdic-77" vertex="1">
          <mxGeometry x="360" y="395" width="120" height="80" as="geometry" />
        </mxCell>
        <mxCell id="UzzwOPRDWCMKMTii6RTC-138" value="Name" style="ellipse;whiteSpace=wrap;html=1;container=0;" parent="cT-F6GylOhjwORmzsdic-77" vertex="1">
          <mxGeometry x="70" y="20" width="120" height="80" as="geometry" />
        </mxCell>
        <mxCell id="UzzwOPRDWCMKMTii6RTC-139" value="Description&amp;nbsp;" style="ellipse;whiteSpace=wrap;html=1;container=0;" parent="cT-F6GylOhjwORmzsdic-77" vertex="1">
          <mxGeometry x="30" y="110" width="120" height="80" as="geometry" />
        </mxCell>
        <mxCell id="UzzwOPRDWCMKMTii6RTC-140" value="Price&amp;nbsp;" style="ellipse;whiteSpace=wrap;html=1;container=0;" parent="cT-F6GylOhjwORmzsdic-77" vertex="1">
          <mxGeometry x="200" y="410" width="120" height="80" as="geometry" />
        </mxCell>
        <mxCell id="UzzwOPRDWCMKMTii6RTC-141" value="Weight" style="ellipse;whiteSpace=wrap;html=1;container=0;" parent="cT-F6GylOhjwORmzsdic-77" vertex="1">
          <mxGeometry x="80" y="380" width="120" height="80" as="geometry" />
        </mxCell>
        <mxCell id="UzzwOPRDWCMKMTii6RTC-142" value="Is_active" style="ellipse;whiteSpace=wrap;html=1;container=0;" parent="cT-F6GylOhjwORmzsdic-77" vertex="1">
          <mxGeometry y="210" width="120" height="80" as="geometry" />
        </mxCell>
        <mxCell id="UzzwOPRDWCMKMTii6RTC-143" value="Created _date" style="ellipse;whiteSpace=wrap;html=1;container=0;" parent="cT-F6GylOhjwORmzsdic-77" vertex="1">
          <mxGeometry y="310" width="120" height="80" as="geometry" />
        </mxCell>
        <mxCell id="UzzwOPRDWCMKMTii6RTC-148" value="" style="endArrow=none;html=1;rounded=0;exitX=0.5;exitY=0;exitDx=0;exitDy=0;entryX=0.25;entryY=1;entryDx=0;entryDy=0;" parent="cT-F6GylOhjwORmzsdic-77" source="UzzwOPRDWCMKMTii6RTC-141" target="UzzwOPRDWCMKMTii6RTC-2" edge="1">
          <mxGeometry width="50" height="50" relative="1" as="geometry">
            <mxPoint x="240" y="310" as="sourcePoint" />
            <mxPoint x="290" y="260" as="targetPoint" />
          </mxGeometry>
        </mxCell>
        <mxCell id="UzzwOPRDWCMKMTii6RTC-147" value="" style="endArrow=none;html=1;rounded=0;entryX=0.5;entryY=1;entryDx=0;entryDy=0;" parent="cT-F6GylOhjwORmzsdic-77" target="UzzwOPRDWCMKMTii6RTC-129" edge="1">
          <mxGeometry width="50" height="50" relative="1" as="geometry">
            <mxPoint x="250" y="220" as="sourcePoint" />
            <mxPoint x="150" y="320" as="targetPoint" />
          </mxGeometry>
        </mxCell>
        <mxCell id="cT-F6GylOhjwORmzsdic-8" value="" style="endArrow=none;html=1;rounded=0;entryX=0.5;entryY=1;entryDx=0;entryDy=0;exitX=0.5;exitY=0;exitDx=0;exitDy=0;" parent="cT-F6GylOhjwORmzsdic-77" source="UzzwOPRDWCMKMTii6RTC-140" target="UzzwOPRDWCMKMTii6RTC-2" edge="1">
          <mxGeometry width="50" height="50" relative="1" as="geometry">
            <mxPoint x="-200" y="420" as="sourcePoint" />
            <mxPoint x="-150" y="370" as="targetPoint" />
          </mxGeometry>
        </mxCell>
        <mxCell id="cT-F6GylOhjwORmzsdic-73" value="" style="endArrow=none;html=1;rounded=0;exitX=1;exitY=0.5;exitDx=0;exitDy=0;entryX=0;entryY=1;entryDx=0;entryDy=0;" parent="cT-F6GylOhjwORmzsdic-77" source="UzzwOPRDWCMKMTii6RTC-143" target="UzzwOPRDWCMKMTii6RTC-2" edge="1">
          <mxGeometry width="50" height="50" relative="1" as="geometry">
            <mxPoint x="590" y="260" as="sourcePoint" />
            <mxPoint x="640" y="210" as="targetPoint" />
          </mxGeometry>
        </mxCell>
        <mxCell id="cT-F6GylOhjwORmzsdic-74" value="" style="endArrow=none;html=1;rounded=0;exitX=1;exitY=0.5;exitDx=0;exitDy=0;" parent="cT-F6GylOhjwORmzsdic-77" source="UzzwOPRDWCMKMTii6RTC-142" edge="1">
          <mxGeometry width="50" height="50" relative="1" as="geometry">
            <mxPoint x="400" y="300" as="sourcePoint" />
            <mxPoint x="200" y="250" as="targetPoint" />
          </mxGeometry>
        </mxCell>
        <mxCell id="cT-F6GylOhjwORmzsdic-75" value="" style="endArrow=none;html=1;rounded=0;entryX=0;entryY=0;entryDx=0;entryDy=0;" parent="cT-F6GylOhjwORmzsdic-77" source="UzzwOPRDWCMKMTii6RTC-139" target="UzzwOPRDWCMKMTii6RTC-2" edge="1">
          <mxGeometry width="50" height="50" relative="1" as="geometry">
            <mxPoint x="380" y="250" as="sourcePoint" />
            <mxPoint x="430" y="200" as="targetPoint" />
          </mxGeometry>
        </mxCell>
        <mxCell id="cT-F6GylOhjwORmzsdic-76" value="" style="endArrow=none;html=1;rounded=0;entryX=0.25;entryY=0;entryDx=0;entryDy=0;" parent="cT-F6GylOhjwORmzsdic-77" source="UzzwOPRDWCMKMTii6RTC-138" target="UzzwOPRDWCMKMTii6RTC-2" edge="1">
          <mxGeometry width="50" height="50" relative="1" as="geometry">
            <mxPoint x="380" y="190" as="sourcePoint" />
            <mxPoint x="430" y="140" as="targetPoint" />
          </mxGeometry>
        </mxCell>
        <mxCell id="bX12A1Q2ex_Rd5gnfCEQ-2" value="Contains" style="rhombus;whiteSpace=wrap;html=1;" parent="cT-F6GylOhjwORmzsdic-77" vertex="1">
          <mxGeometry x="450.00000000000045" y="120" width="80" height="80" as="geometry" />
        </mxCell>
        <mxCell id="bX12A1Q2ex_Rd5gnfCEQ-1" value="" style="endArrow=none;html=1;rounded=0;exitX=0.75;exitY=0;exitDx=0;exitDy=0;entryX=0;entryY=0.5;entryDx=0;entryDy=0;" parent="cT-F6GylOhjwORmzsdic-77" source="UzzwOPRDWCMKMTii6RTC-2" target="bX12A1Q2ex_Rd5gnfCEQ-2" edge="1">
          <mxGeometry width="50" height="50" relative="1" as="geometry">
            <mxPoint x="300" y="210" as="sourcePoint" />
            <mxPoint x="630" y="80" as="targetPoint" />
          </mxGeometry>
        </mxCell>
        <mxCell id="hly1FXEma_6dyXH1mRlF-13" value="1" style="text;html=1;align=center;verticalAlign=middle;resizable=0;points=[];autosize=1;strokeColor=none;fillColor=none;" parent="cT-F6GylOhjwORmzsdic-77" vertex="1">
          <mxGeometry x="510" y="100" width="30" height="30" as="geometry" />
        </mxCell>
        <mxCell id="hly1FXEma_6dyXH1mRlF-15" value="M" style="text;html=1;align=center;verticalAlign=middle;resizable=0;points=[];autosize=1;strokeColor=none;fillColor=none;" parent="cT-F6GylOhjwORmzsdic-77" vertex="1">
          <mxGeometry x="480" y="230" width="30" height="30" as="geometry" />
        </mxCell>
        <mxCell id="cT-F6GylOhjwORmzsdic-82" value="" style="group" parent="1" vertex="1" connectable="0">
          <mxGeometry x="1110" y="250" width="420" height="430" as="geometry" />
        </mxCell>
        <mxCell id="UzzwOPRDWCMKMTii6RTC-4" value="Supplier" style="rounded=0;whiteSpace=wrap;html=1;container=0;" parent="cT-F6GylOhjwORmzsdic-82" vertex="1">
          <mxGeometry x="70" y="180" width="120" height="60" as="geometry" />
        </mxCell>
        <mxCell id="UzzwOPRDWCMKMTii6RTC-160" value="&lt;u&gt;Supplier_Id&lt;/u&gt;" style="ellipse;whiteSpace=wrap;html=1;container=0;" parent="cT-F6GylOhjwORmzsdic-82" vertex="1">
          <mxGeometry x="130" width="120" height="80" as="geometry" />
        </mxCell>
        <mxCell id="UzzwOPRDWCMKMTii6RTC-161" value="Company _name" style="ellipse;whiteSpace=wrap;html=1;container=0;" parent="cT-F6GylOhjwORmzsdic-82" vertex="1">
          <mxGeometry x="240" y="50" width="120" height="80" as="geometry" />
        </mxCell>
        <mxCell id="UzzwOPRDWCMKMTii6RTC-162" value="Company parson&amp;nbsp;" style="ellipse;whiteSpace=wrap;html=1;container=0;" parent="cT-F6GylOhjwORmzsdic-82" vertex="1">
          <mxGeometry y="10" width="120" height="80" as="geometry" />
        </mxCell>
        <mxCell id="UzzwOPRDWCMKMTii6RTC-163" value="Email" style="ellipse;whiteSpace=wrap;html=1;container=0;" parent="cT-F6GylOhjwORmzsdic-82" vertex="1">
          <mxGeometry x="270" y="160" width="120" height="80" as="geometry" />
        </mxCell>
        <mxCell id="UzzwOPRDWCMKMTii6RTC-164" value="phone" style="ellipse;whiteSpace=wrap;html=1;container=0;" parent="cT-F6GylOhjwORmzsdic-82" vertex="1">
          <mxGeometry x="300" y="280" width="120" height="80" as="geometry" />
        </mxCell>
        <mxCell id="UzzwOPRDWCMKMTii6RTC-165" value="Rating" style="ellipse;whiteSpace=wrap;html=1;container=0;" parent="cT-F6GylOhjwORmzsdic-82" vertex="1">
          <mxGeometry x="100" y="350" width="120" height="80" as="geometry" />
        </mxCell>
        <mxCell id="UzzwOPRDWCMKMTii6RTC-166" value="Address&amp;nbsp;" style="ellipse;whiteSpace=wrap;html=1;container=0;" parent="cT-F6GylOhjwORmzsdic-82" vertex="1">
          <mxGeometry x="230" y="350" width="120" height="80" as="geometry" />
        </mxCell>
        <mxCell id="UzzwOPRDWCMKMTii6RTC-167" value="" style="endArrow=none;html=1;rounded=0;entryX=0.5;entryY=1;entryDx=0;entryDy=0;exitX=0.387;exitY=0.047;exitDx=0;exitDy=0;exitPerimeter=0;" parent="cT-F6GylOhjwORmzsdic-82" source="UzzwOPRDWCMKMTii6RTC-166" target="UzzwOPRDWCMKMTii6RTC-4" edge="1">
          <mxGeometry width="50" height="50" relative="1" as="geometry">
            <mxPoint x="270" y="360" as="sourcePoint" />
            <mxPoint x="320" y="310" as="targetPoint" />
          </mxGeometry>
        </mxCell>
        <mxCell id="UzzwOPRDWCMKMTii6RTC-168" value="" style="endArrow=none;html=1;rounded=0;entryX=1;entryY=0.5;entryDx=0;entryDy=0;exitX=0;exitY=0;exitDx=0;exitDy=0;" parent="cT-F6GylOhjwORmzsdic-82" source="UzzwOPRDWCMKMTii6RTC-164" target="UzzwOPRDWCMKMTii6RTC-4" edge="1">
          <mxGeometry width="50" height="50" relative="1" as="geometry">
            <mxPoint x="270" y="360" as="sourcePoint" />
            <mxPoint x="320" y="310" as="targetPoint" />
          </mxGeometry>
        </mxCell>
        <mxCell id="UzzwOPRDWCMKMTii6RTC-171" value="" style="endArrow=none;html=1;rounded=0;exitX=0.5;exitY=1;exitDx=0;exitDy=0;" parent="cT-F6GylOhjwORmzsdic-82" source="UzzwOPRDWCMKMTii6RTC-162" edge="1">
          <mxGeometry width="50" height="50" relative="1" as="geometry">
            <mxPoint x="270" y="360" as="sourcePoint" />
            <mxPoint x="80" y="180" as="targetPoint" />
          </mxGeometry>
        </mxCell>
        <mxCell id="UzzwOPRDWCMKMTii6RTC-172" value="" style="endArrow=none;html=1;rounded=0;entryX=0.324;entryY=0.992;entryDx=0;entryDy=0;exitX=1;exitY=0;exitDx=0;exitDy=0;entryPerimeter=0;" parent="cT-F6GylOhjwORmzsdic-82" source="UzzwOPRDWCMKMTii6RTC-4" target="UzzwOPRDWCMKMTii6RTC-161" edge="1">
          <mxGeometry width="50" height="50" relative="1" as="geometry">
            <mxPoint x="270" y="360" as="sourcePoint" />
            <mxPoint x="320" y="310" as="targetPoint" />
          </mxGeometry>
        </mxCell>
        <mxCell id="UzzwOPRDWCMKMTii6RTC-173" value="" style="endArrow=none;html=1;rounded=0;entryX=0.5;entryY=1;entryDx=0;entryDy=0;exitX=0.25;exitY=0;exitDx=0;exitDy=0;" parent="cT-F6GylOhjwORmzsdic-82" source="UzzwOPRDWCMKMTii6RTC-4" target="UzzwOPRDWCMKMTii6RTC-160" edge="1">
          <mxGeometry width="50" height="50" relative="1" as="geometry">
            <mxPoint x="80" y="160" as="sourcePoint" />
            <mxPoint x="40" y="140" as="targetPoint" />
          </mxGeometry>
        </mxCell>
        <mxCell id="cT-F6GylOhjwORmzsdic-32" value="" style="endArrow=none;html=1;rounded=0;entryX=0.25;entryY=1;entryDx=0;entryDy=0;exitX=0.5;exitY=0;exitDx=0;exitDy=0;" parent="cT-F6GylOhjwORmzsdic-82" source="UzzwOPRDWCMKMTii6RTC-165" target="UzzwOPRDWCMKMTii6RTC-4" edge="1">
          <mxGeometry width="50" height="50" relative="1" as="geometry">
            <mxPoint x="110" y="350" as="sourcePoint" />
            <mxPoint x="-140" y="440" as="targetPoint" />
          </mxGeometry>
        </mxCell>
        <mxCell id="cT-F6GylOhjwORmzsdic-81" value="" style="endArrow=none;html=1;rounded=0;entryX=0;entryY=0.5;entryDx=0;entryDy=0;exitX=1;exitY=0.25;exitDx=0;exitDy=0;" parent="cT-F6GylOhjwORmzsdic-82" source="UzzwOPRDWCMKMTii6RTC-4" target="UzzwOPRDWCMKMTii6RTC-163" edge="1">
          <mxGeometry width="50" height="50" relative="1" as="geometry">
            <mxPoint x="-90" y="130" as="sourcePoint" />
            <mxPoint x="-40" y="80" as="targetPoint" />
          </mxGeometry>
        </mxCell>
        <mxCell id="cT-F6GylOhjwORmzsdic-83" value="" style="endArrow=none;html=1;rounded=0;exitX=1;exitY=0.5;exitDx=0;exitDy=0;" parent="1" source="UzzwOPRDWCMKMTii6RTC-2" target="cT-F6GylOhjwORmzsdic-84" edge="1">
          <mxGeometry width="50" height="50" relative="1" as="geometry">
            <mxPoint x="1140" y="40" as="sourcePoint" />
            <mxPoint x="950" y="210" as="targetPoint" />
          </mxGeometry>
        </mxCell>
        <mxCell id="cT-F6GylOhjwORmzsdic-84" value="supplies" style="rhombus;whiteSpace=wrap;html=1;" parent="1" vertex="1">
          <mxGeometry x="910" y="200" width="80" height="80" as="geometry" />
        </mxCell>
        <mxCell id="cT-F6GylOhjwORmzsdic-85" value="" style="endArrow=none;html=1;rounded=0;exitX=1;exitY=1;exitDx=0;exitDy=0;entryX=0;entryY=0.5;entryDx=0;entryDy=0;" parent="1" source="cT-F6GylOhjwORmzsdic-84" target="UzzwOPRDWCMKMTii6RTC-4" edge="1">
          <mxGeometry width="50" height="50" relative="1" as="geometry">
            <mxPoint x="1140" y="40" as="sourcePoint" />
            <mxPoint x="1260" y="210" as="targetPoint" />
          </mxGeometry>
        </mxCell>
        <mxCell id="cT-F6GylOhjwORmzsdic-90" value="" style="group" parent="1" vertex="1" connectable="0">
          <mxGeometry x="745" y="510" width="310" height="370" as="geometry" />
        </mxCell>
        <mxCell id="UzzwOPRDWCMKMTii6RTC-10" value="Inventory&amp;nbsp;" style="rounded=0;whiteSpace=wrap;html=1;container=0;" parent="cT-F6GylOhjwORmzsdic-90" vertex="1">
          <mxGeometry y="140" width="120" height="60" as="geometry" />
        </mxCell>
        <mxCell id="UzzwOPRDWCMKMTii6RTC-195" value="&lt;u&gt;Inventory _Id&lt;/u&gt;" style="ellipse;whiteSpace=wrap;html=1;container=0;" parent="cT-F6GylOhjwORmzsdic-90" vertex="1">
          <mxGeometry x="190" y="140" width="120" height="80" as="geometry" />
        </mxCell>
        <mxCell id="UzzwOPRDWCMKMTii6RTC-196" value="Reorder _level" style="ellipse;whiteSpace=wrap;html=1;container=0;" parent="cT-F6GylOhjwORmzsdic-90" vertex="1">
          <mxGeometry x="163" width="120" height="80" as="geometry" />
        </mxCell>
        <mxCell id="UzzwOPRDWCMKMTii6RTC-197" value="Quantity_In_stock" style="ellipse;whiteSpace=wrap;html=1;container=0;" parent="cT-F6GylOhjwORmzsdic-90" vertex="1">
          <mxGeometry x="130" y="240" width="120" height="80" as="geometry" />
        </mxCell>
        <mxCell id="UzzwOPRDWCMKMTii6RTC-198" value="Last updated&amp;nbsp;" style="ellipse;whiteSpace=wrap;html=1;container=0;" parent="cT-F6GylOhjwORmzsdic-90" vertex="1">
          <mxGeometry y="290" width="120" height="80" as="geometry" />
        </mxCell>
        <mxCell id="UzzwOPRDWCMKMTii6RTC-202" value="" style="endArrow=none;html=1;rounded=0;exitX=1;exitY=0.5;exitDx=0;exitDy=0;entryX=-0.002;entryY=0.627;entryDx=0;entryDy=0;entryPerimeter=0;" parent="cT-F6GylOhjwORmzsdic-90" source="UzzwOPRDWCMKMTii6RTC-10" target="UzzwOPRDWCMKMTii6RTC-195" edge="1">
          <mxGeometry width="50" height="50" relative="1" as="geometry">
            <mxPoint x="-80" y="-60" as="sourcePoint" />
            <mxPoint x="-30" y="-110" as="targetPoint" />
          </mxGeometry>
        </mxCell>
        <mxCell id="UzzwOPRDWCMKMTii6RTC-203" value="" style="endArrow=none;html=1;rounded=0;exitX=0.5;exitY=1;exitDx=0;exitDy=0;entryX=0.664;entryY=0.085;entryDx=0;entryDy=0;entryPerimeter=0;" parent="cT-F6GylOhjwORmzsdic-90" source="UzzwOPRDWCMKMTii6RTC-10" target="UzzwOPRDWCMKMTii6RTC-198" edge="1">
          <mxGeometry width="50" height="50" relative="1" as="geometry">
            <mxPoint x="-80" y="-60" as="sourcePoint" />
            <mxPoint x="-30" y="-110" as="targetPoint" />
          </mxGeometry>
        </mxCell>
        <mxCell id="UzzwOPRDWCMKMTii6RTC-204" value="" style="endArrow=none;html=1;rounded=0;exitX=1;exitY=1;exitDx=0;exitDy=0;entryX=0.269;entryY=0.134;entryDx=0;entryDy=0;entryPerimeter=0;" parent="cT-F6GylOhjwORmzsdic-90" source="UzzwOPRDWCMKMTii6RTC-10" target="UzzwOPRDWCMKMTii6RTC-197" edge="1">
          <mxGeometry width="50" height="50" relative="1" as="geometry">
            <mxPoint x="-80" y="-60" as="sourcePoint" />
            <mxPoint x="-30" y="-110" as="targetPoint" />
          </mxGeometry>
        </mxCell>
        <mxCell id="cT-F6GylOhjwORmzsdic-88" value="" style="endArrow=none;html=1;rounded=0;exitX=1;exitY=0;exitDx=0;exitDy=0;entryX=0;entryY=1;entryDx=0;entryDy=0;" parent="cT-F6GylOhjwORmzsdic-90" source="UzzwOPRDWCMKMTii6RTC-10" target="UzzwOPRDWCMKMTii6RTC-196" edge="1">
          <mxGeometry width="50" height="50" relative="1" as="geometry">
            <mxPoint x="53" y="20" as="sourcePoint" />
            <mxPoint x="103" y="-30" as="targetPoint" />
          </mxGeometry>
        </mxCell>
        <mxCell id="cT-F6GylOhjwORmzsdic-91" value="" style="endArrow=none;html=1;rounded=0;exitX=1;exitY=0.75;exitDx=0;exitDy=0;entryX=0.5;entryY=0;entryDx=0;entryDy=0;" parent="1" source="UzzwOPRDWCMKMTii6RTC-2" target="cT-F6GylOhjwORmzsdic-92" edge="1">
          <mxGeometry width="50" height="50" relative="1" as="geometry">
            <mxPoint x="1040" y="340" as="sourcePoint" />
            <mxPoint x="880" y="360" as="targetPoint" />
          </mxGeometry>
        </mxCell>
        <mxCell id="cT-F6GylOhjwORmzsdic-92" value="has" style="rhombus;whiteSpace=wrap;html=1;" parent="1" vertex="1">
          <mxGeometry x="830" y="310" width="80" height="80" as="geometry" />
        </mxCell>
        <mxCell id="cT-F6GylOhjwORmzsdic-93" value="" style="endArrow=none;html=1;rounded=0;exitX=0.5;exitY=0;exitDx=0;exitDy=0;entryX=0.5;entryY=1;entryDx=0;entryDy=0;" parent="1" source="UzzwOPRDWCMKMTii6RTC-10" target="cT-F6GylOhjwORmzsdic-92" edge="1">
          <mxGeometry width="50" height="50" relative="1" as="geometry">
            <mxPoint x="1040" y="340" as="sourcePoint" />
            <mxPoint x="1090" y="290" as="targetPoint" />
          </mxGeometry>
        </mxCell>
        <mxCell id="cT-F6GylOhjwORmzsdic-96" value="" style="endArrow=none;html=1;rounded=0;entryX=0.5;entryY=0;entryDx=0;entryDy=0;" parent="1" target="cT-F6GylOhjwORmzsdic-97" edge="1">
          <mxGeometry width="50" height="50" relative="1" as="geometry">
            <mxPoint x="920" y="270" as="sourcePoint" />
            <mxPoint x="1290" y="420" as="targetPoint" />
          </mxGeometry>
        </mxCell>
        <mxCell id="hly1FXEma_6dyXH1mRlF-12" value="M" style="text;html=1;align=center;verticalAlign=middle;resizable=0;points=[];autosize=1;strokeColor=none;fillColor=none;" parent="1" vertex="1">
          <mxGeometry x="585" y="88" width="30" height="30" as="geometry" />
        </mxCell>
        <mxCell id="hly1FXEma_6dyXH1mRlF-16" value="1" style="text;html=1;align=center;verticalAlign=middle;resizable=0;points=[];autosize=1;strokeColor=none;fillColor=none;" parent="1" vertex="1">
          <mxGeometry x="715" y="258" width="30" height="30" as="geometry" />
        </mxCell>
        <mxCell id="hly1FXEma_6dyXH1mRlF-17" value="M" style="text;html=1;align=center;verticalAlign=middle;resizable=0;points=[];autosize=1;strokeColor=none;fillColor=none;rotation=0;" parent="1" vertex="1">
          <mxGeometry x="855" y="500" width="30" height="30" as="geometry" />
        </mxCell>
        <mxCell id="hly1FXEma_6dyXH1mRlF-18" value="1" style="text;html=1;align=center;verticalAlign=middle;resizable=0;points=[];autosize=1;strokeColor=none;fillColor=none;" parent="1" vertex="1">
          <mxGeometry x="1055" y="310" width="30" height="30" as="geometry" />
        </mxCell>
        <mxCell id="hly1FXEma_6dyXH1mRlF-20" value="M" style="text;html=1;align=center;verticalAlign=middle;resizable=0;points=[];autosize=1;strokeColor=none;fillColor=none;" parent="1" vertex="1">
          <mxGeometry x="295" y="-162" width="30" height="30" as="geometry" />
        </mxCell>
        <mxCell id="hly1FXEma_6dyXH1mRlF-21" value="" style="endArrow=none;html=1;rounded=0;exitX=1;exitY=1;exitDx=0;exitDy=0;entryX=0.5;entryY=0;entryDx=0;entryDy=0;" parent="1" source="UzzwOPRDWCMKMTii6RTC-1" target="hly1FXEma_6dyXH1mRlF-22" edge="1">
          <mxGeometry width="50" height="50" relative="1" as="geometry">
            <mxPoint x="230" y="-200" as="sourcePoint" />
            <mxPoint x="-350" y="-340" as="targetPoint" />
          </mxGeometry>
        </mxCell>
        <mxCell id="hly1FXEma_6dyXH1mRlF-22" value="Uses" style="rhombus;whiteSpace=wrap;html=1;" parent="1" vertex="1">
          <mxGeometry x="-390" y="-390" width="80" height="80" as="geometry" />
        </mxCell>
        <mxCell id="hly1FXEma_6dyXH1mRlF-29" value="" style="group" parent="1" vertex="1" connectable="0">
          <mxGeometry x="-640" y="200" width="540" height="470" as="geometry" />
        </mxCell>
        <mxCell id="UzzwOPRDWCMKMTii6RTC-228" value="usage_limit" style="ellipse;whiteSpace=wrap;html=1;" parent="hly1FXEma_6dyXH1mRlF-29" vertex="1">
          <mxGeometry x="220" y="350" width="120" height="80" as="geometry" />
        </mxCell>
        <mxCell id="UzzwOPRDWCMKMTii6RTC-7" value="Coupon&amp;nbsp;" style="rounded=0;whiteSpace=wrap;html=1;container=0;" parent="hly1FXEma_6dyXH1mRlF-29" vertex="1">
          <mxGeometry x="210" y="140" width="120" height="60" as="geometry" />
        </mxCell>
        <mxCell id="UzzwOPRDWCMKMTii6RTC-206" value="Code" style="ellipse;whiteSpace=wrap;html=1;container=0;" parent="hly1FXEma_6dyXH1mRlF-29" vertex="1">
          <mxGeometry x="50" y="390" width="120" height="80" as="geometry" />
        </mxCell>
        <mxCell id="UzzwOPRDWCMKMTii6RTC-207" value="&lt;u&gt;Coupon _Id&lt;/u&gt;" style="ellipse;whiteSpace=wrap;html=1;container=0;" parent="hly1FXEma_6dyXH1mRlF-29" vertex="1">
          <mxGeometry x="70" width="120" height="80" as="geometry" />
        </mxCell>
        <mxCell id="UzzwOPRDWCMKMTii6RTC-223" value="Discount _type" style="ellipse;whiteSpace=wrap;html=1;container=0;" parent="hly1FXEma_6dyXH1mRlF-29" vertex="1">
          <mxGeometry x="340" y="30" width="120" height="80" as="geometry" />
        </mxCell>
        <mxCell id="UzzwOPRDWCMKMTii6RTC-224" value="Discount value&amp;nbsp;" style="ellipse;whiteSpace=wrap;html=1;container=0;" parent="hly1FXEma_6dyXH1mRlF-29" vertex="1">
          <mxGeometry x="50" y="110" width="120" height="80" as="geometry" />
        </mxCell>
        <mxCell id="UzzwOPRDWCMKMTii6RTC-225" value="mini_order_amount" style="ellipse;whiteSpace=wrap;html=1;container=0;" parent="hly1FXEma_6dyXH1mRlF-29" vertex="1">
          <mxGeometry x="360" y="120" width="120" height="80" as="geometry" />
        </mxCell>
        <mxCell id="UzzwOPRDWCMKMTii6RTC-226" value="Start _date" style="ellipse;whiteSpace=wrap;html=1;container=0;" parent="hly1FXEma_6dyXH1mRlF-29" vertex="1">
          <mxGeometry x="30" y="200" width="120" height="80" as="geometry" />
        </mxCell>
        <mxCell id="UzzwOPRDWCMKMTii6RTC-227" value="times_used" style="ellipse;whiteSpace=wrap;html=1;container=0;" parent="hly1FXEma_6dyXH1mRlF-29" vertex="1">
          <mxGeometry y="290" width="120" height="80" as="geometry" />
        </mxCell>
        <mxCell id="UzzwOPRDWCMKMTii6RTC-229" value="End_date" style="ellipse;whiteSpace=wrap;html=1;container=0;" parent="hly1FXEma_6dyXH1mRlF-29" vertex="1">
          <mxGeometry x="420" y="230" width="120" height="80" as="geometry" />
        </mxCell>
        <mxCell id="UzzwOPRDWCMKMTii6RTC-230" value="Is_active" style="ellipse;whiteSpace=wrap;html=1;container=0;" parent="hly1FXEma_6dyXH1mRlF-29" vertex="1">
          <mxGeometry x="370" y="320" width="120" height="80" as="geometry" />
        </mxCell>
        <mxCell id="UzzwOPRDWCMKMTii6RTC-232" value="" style="endArrow=none;html=1;rounded=0;entryX=1;entryY=1;entryDx=0;entryDy=0;exitX=0.358;exitY=0.033;exitDx=0;exitDy=0;exitPerimeter=0;" parent="hly1FXEma_6dyXH1mRlF-29" source="UzzwOPRDWCMKMTii6RTC-7" target="UzzwOPRDWCMKMTii6RTC-207" edge="1">
          <mxGeometry width="50" height="50" relative="1" as="geometry">
            <mxPoint x="140" y="140" as="sourcePoint" />
            <mxPoint x="190" y="90" as="targetPoint" />
          </mxGeometry>
        </mxCell>
        <mxCell id="UzzwOPRDWCMKMTii6RTC-233" value="" style="endArrow=none;html=1;rounded=0;exitX=0.75;exitY=0;exitDx=0;exitDy=0;" parent="hly1FXEma_6dyXH1mRlF-29" source="UzzwOPRDWCMKMTii6RTC-7" target="UzzwOPRDWCMKMTii6RTC-223" edge="1">
          <mxGeometry width="50" height="50" relative="1" as="geometry">
            <mxPoint x="140" y="140" as="sourcePoint" />
            <mxPoint x="190" y="90" as="targetPoint" />
          </mxGeometry>
        </mxCell>
        <mxCell id="UzzwOPRDWCMKMTii6RTC-234" value="" style="endArrow=none;html=1;rounded=0;exitX=1.014;exitY=0.642;exitDx=0;exitDy=0;exitPerimeter=0;entryX=0;entryY=0.25;entryDx=0;entryDy=0;" parent="hly1FXEma_6dyXH1mRlF-29" source="UzzwOPRDWCMKMTii6RTC-224" target="UzzwOPRDWCMKMTii6RTC-7" edge="1">
          <mxGeometry width="50" height="50" relative="1" as="geometry">
            <mxPoint x="140" y="140" as="sourcePoint" />
            <mxPoint x="190" y="90" as="targetPoint" />
          </mxGeometry>
        </mxCell>
        <mxCell id="UzzwOPRDWCMKMTii6RTC-235" value="" style="endArrow=none;html=1;rounded=0;exitX=1;exitY=0.5;exitDx=0;exitDy=0;entryX=0.25;entryY=1;entryDx=0;entryDy=0;" parent="hly1FXEma_6dyXH1mRlF-29" source="UzzwOPRDWCMKMTii6RTC-226" target="UzzwOPRDWCMKMTii6RTC-7" edge="1">
          <mxGeometry width="50" height="50" relative="1" as="geometry">
            <mxPoint x="140" y="140" as="sourcePoint" />
            <mxPoint x="190" y="90" as="targetPoint" />
          </mxGeometry>
        </mxCell>
        <mxCell id="UzzwOPRDWCMKMTii6RTC-236" value="" style="endArrow=none;html=1;rounded=0;exitX=1;exitY=0.5;exitDx=0;exitDy=0;entryX=0.347;entryY=1.044;entryDx=0;entryDy=0;entryPerimeter=0;" parent="hly1FXEma_6dyXH1mRlF-29" source="UzzwOPRDWCMKMTii6RTC-227" target="UzzwOPRDWCMKMTii6RTC-7" edge="1">
          <mxGeometry width="50" height="50" relative="1" as="geometry">
            <mxPoint x="140" y="140" as="sourcePoint" />
            <mxPoint x="190" y="90" as="targetPoint" />
          </mxGeometry>
        </mxCell>
        <mxCell id="UzzwOPRDWCMKMTii6RTC-237" value="" style="endArrow=none;html=1;rounded=0;exitX=0.5;exitY=0;exitDx=0;exitDy=0;entryX=0.669;entryY=0.978;entryDx=0;entryDy=0;entryPerimeter=0;" parent="hly1FXEma_6dyXH1mRlF-29" source="UzzwOPRDWCMKMTii6RTC-230" target="UzzwOPRDWCMKMTii6RTC-7" edge="1">
          <mxGeometry width="50" height="50" relative="1" as="geometry">
            <mxPoint x="140" y="140" as="sourcePoint" />
            <mxPoint x="190" y="90" as="targetPoint" />
          </mxGeometry>
        </mxCell>
        <mxCell id="UzzwOPRDWCMKMTii6RTC-238" value="" style="endArrow=none;html=1;rounded=0;exitX=0;exitY=0;exitDx=0;exitDy=0;entryX=1;entryY=1;entryDx=0;entryDy=0;" parent="hly1FXEma_6dyXH1mRlF-29" source="UzzwOPRDWCMKMTii6RTC-229" target="UzzwOPRDWCMKMTii6RTC-7" edge="1">
          <mxGeometry width="50" height="50" relative="1" as="geometry">
            <mxPoint x="140" y="140" as="sourcePoint" />
            <mxPoint x="190" y="90" as="targetPoint" />
          </mxGeometry>
        </mxCell>
        <mxCell id="UzzwOPRDWCMKMTii6RTC-240" value="" style="endArrow=none;html=1;rounded=0;exitX=0;exitY=0.5;exitDx=0;exitDy=0;entryX=1;entryY=0.5;entryDx=0;entryDy=0;" parent="hly1FXEma_6dyXH1mRlF-29" source="UzzwOPRDWCMKMTii6RTC-225" target="UzzwOPRDWCMKMTii6RTC-7" edge="1">
          <mxGeometry width="50" height="50" relative="1" as="geometry">
            <mxPoint x="140" y="140" as="sourcePoint" />
            <mxPoint x="190" y="90" as="targetPoint" />
          </mxGeometry>
        </mxCell>
        <mxCell id="hly1FXEma_6dyXH1mRlF-27" value="" style="endArrow=none;html=1;rounded=0;exitX=1;exitY=0;exitDx=0;exitDy=0;entryX=0.5;entryY=1;entryDx=0;entryDy=0;" parent="hly1FXEma_6dyXH1mRlF-29" source="UzzwOPRDWCMKMTii6RTC-206" target="UzzwOPRDWCMKMTii6RTC-7" edge="1">
          <mxGeometry width="50" height="50" relative="1" as="geometry">
            <mxPoint x="840" y="100" as="sourcePoint" />
            <mxPoint x="890" y="50" as="targetPoint" />
          </mxGeometry>
        </mxCell>
        <mxCell id="hly1FXEma_6dyXH1mRlF-28" value="" style="endArrow=none;html=1;rounded=0;exitX=0.34;exitY=0.064;exitDx=0;exitDy=0;exitPerimeter=0;entryX=0.5;entryY=1;entryDx=0;entryDy=0;" parent="hly1FXEma_6dyXH1mRlF-29" source="UzzwOPRDWCMKMTii6RTC-228" target="UzzwOPRDWCMKMTii6RTC-7" edge="1">
          <mxGeometry width="50" height="50" relative="1" as="geometry">
            <mxPoint x="840" y="100" as="sourcePoint" />
            <mxPoint x="890" y="50" as="targetPoint" />
          </mxGeometry>
        </mxCell>
        <mxCell id="hly1FXEma_6dyXH1mRlF-31" value="" style="endArrow=none;html=1;rounded=0;exitX=0.5;exitY=1;exitDx=0;exitDy=0;entryX=0.5;entryY=0;entryDx=0;entryDy=0;" parent="1" source="hly1FXEma_6dyXH1mRlF-22" target="UzzwOPRDWCMKMTii6RTC-7" edge="1">
          <mxGeometry width="50" height="50" relative="1" as="geometry">
            <mxPoint x="540" y="240" as="sourcePoint" />
            <mxPoint x="590" y="190" as="targetPoint" />
          </mxGeometry>
        </mxCell>
        <mxCell id="hly1FXEma_6dyXH1mRlF-34" value="M" style="text;html=1;align=center;verticalAlign=middle;resizable=0;points=[];autosize=1;strokeColor=none;fillColor=none;" parent="1" vertex="1">
          <mxGeometry x="-345" y="-202" width="30" height="30" as="geometry" />
        </mxCell>
        <mxCell id="hly1FXEma_6dyXH1mRlF-35" value="M" style="text;html=1;align=center;verticalAlign=middle;resizable=0;points=[];autosize=1;strokeColor=none;fillColor=none;" parent="1" vertex="1">
          <mxGeometry x="-375" y="-452" width="30" height="30" as="geometry" />
        </mxCell>
        <mxCell id="bX12A1Q2ex_Rd5gnfCEQ-11" value="" style="group" parent="1" vertex="1" connectable="0">
          <mxGeometry x="760" y="-160" width="380" height="340" as="geometry" />
        </mxCell>
        <mxCell id="cT-F6GylOhjwORmzsdic-71" value="" style="group" parent="bX12A1Q2ex_Rd5gnfCEQ-11" vertex="1" connectable="0">
          <mxGeometry width="380" height="220" as="geometry" />
        </mxCell>
        <mxCell id="UzzwOPRDWCMKMTii6RTC-154" value="Description&amp;nbsp;" style="ellipse;whiteSpace=wrap;html=1;container=0;" parent="cT-F6GylOhjwORmzsdic-71" vertex="1">
          <mxGeometry x="120" width="120" height="80" as="geometry" />
        </mxCell>
        <mxCell id="ODYKEcNakLckmjIx6G09-22" value="" style="group" vertex="1" connectable="0" parent="cT-F6GylOhjwORmzsdic-71">
          <mxGeometry y="30" width="380" height="190" as="geometry" />
        </mxCell>
        <mxCell id="UzzwOPRDWCMKMTii6RTC-3" value="Category" style="rounded=0;whiteSpace=wrap;html=1;container=0;" parent="ODYKEcNakLckmjIx6G09-22" vertex="1">
          <mxGeometry x="120" y="130" width="120" height="60" as="geometry" />
        </mxCell>
        <mxCell id="UzzwOPRDWCMKMTii6RTC-152" value="&lt;u&gt;Category _Id&lt;/u&gt;" style="ellipse;whiteSpace=wrap;html=1;container=0;" parent="ODYKEcNakLckmjIx6G09-22" vertex="1">
          <mxGeometry x="260" width="120" height="80" as="geometry" />
        </mxCell>
        <mxCell id="UzzwOPRDWCMKMTii6RTC-153" value="Name" style="ellipse;whiteSpace=wrap;html=1;container=0;" parent="ODYKEcNakLckmjIx6G09-22" vertex="1">
          <mxGeometry y="20" width="120" height="80" as="geometry" />
        </mxCell>
        <mxCell id="UzzwOPRDWCMKMTii6RTC-155" value="" style="endArrow=none;html=1;rounded=0;exitX=0;exitY=0;exitDx=0;exitDy=0;entryX=1;entryY=1;entryDx=0;entryDy=0;" parent="ODYKEcNakLckmjIx6G09-22" source="UzzwOPRDWCMKMTii6RTC-3" target="UzzwOPRDWCMKMTii6RTC-153" edge="1">
          <mxGeometry width="50" height="50" relative="1" as="geometry">
            <mxPoint x="-50" y="80" as="sourcePoint" />
            <mxPoint y="30" as="targetPoint" />
          </mxGeometry>
        </mxCell>
        <mxCell id="UzzwOPRDWCMKMTii6RTC-157" value="" style="endArrow=none;html=1;rounded=0;exitX=0.5;exitY=0;exitDx=0;exitDy=0;entryX=0.5;entryY=1;entryDx=0;entryDy=0;" parent="ODYKEcNakLckmjIx6G09-22" source="UzzwOPRDWCMKMTii6RTC-3" target="UzzwOPRDWCMKMTii6RTC-154" edge="1">
          <mxGeometry width="50" height="50" relative="1" as="geometry">
            <mxPoint x="-50" y="80" as="sourcePoint" />
            <mxPoint y="30" as="targetPoint" />
          </mxGeometry>
        </mxCell>
        <mxCell id="cT-F6GylOhjwORmzsdic-14" value="" style="endArrow=none;html=1;rounded=0;exitX=1;exitY=0;exitDx=0;exitDy=0;entryX=0;entryY=1;entryDx=0;entryDy=0;exitPerimeter=0;" parent="ODYKEcNakLckmjIx6G09-22" source="UzzwOPRDWCMKMTii6RTC-3" target="UzzwOPRDWCMKMTii6RTC-152" edge="1">
          <mxGeometry width="50" height="50" relative="1" as="geometry">
            <mxPoint x="250" y="350" as="sourcePoint" />
            <mxPoint x="360" y="170" as="targetPoint" />
          </mxGeometry>
        </mxCell>
        <mxCell id="bX12A1Q2ex_Rd5gnfCEQ-4" value="contains" style="rhombus;whiteSpace=wrap;html=1;" parent="bX12A1Q2ex_Rd5gnfCEQ-11" vertex="1">
          <mxGeometry x="140" y="260" width="80" height="80" as="geometry" />
        </mxCell>
        <mxCell id="bX12A1Q2ex_Rd5gnfCEQ-5" value="" style="endArrow=none;html=1;rounded=0;entryX=0.5;entryY=1;entryDx=0;entryDy=0;exitX=0.5;exitY=0;exitDx=0;exitDy=0;" parent="bX12A1Q2ex_Rd5gnfCEQ-11" source="bX12A1Q2ex_Rd5gnfCEQ-4" target="UzzwOPRDWCMKMTii6RTC-3" edge="1">
          <mxGeometry width="50" height="50" relative="1" as="geometry">
            <mxPoint x="153" y="360" as="sourcePoint" />
            <mxPoint x="203" y="310" as="targetPoint" />
          </mxGeometry>
        </mxCell>
        <mxCell id="bX12A1Q2ex_Rd5gnfCEQ-6" value="" style="endArrow=none;html=1;rounded=0;entryX=0.608;entryY=1;entryDx=0;entryDy=0;entryPerimeter=0;exitX=1;exitY=0;exitDx=0;exitDy=0;" parent="bX12A1Q2ex_Rd5gnfCEQ-11" source="bX12A1Q2ex_Rd5gnfCEQ-4" target="UzzwOPRDWCMKMTii6RTC-3" edge="1">
          <mxGeometry width="50" height="50" relative="1" as="geometry">
            <mxPoint x="153" y="360" as="sourcePoint" />
            <mxPoint x="203" y="310" as="targetPoint" />
          </mxGeometry>
        </mxCell>
        <mxCell id="bX12A1Q2ex_Rd5gnfCEQ-7" value="child" style="text;html=1;align=center;verticalAlign=middle;resizable=0;points=[];autosize=1;strokeColor=none;fillColor=none;" parent="bX12A1Q2ex_Rd5gnfCEQ-11" vertex="1">
          <mxGeometry x="118" y="228" width="50" height="30" as="geometry" />
        </mxCell>
        <mxCell id="bX12A1Q2ex_Rd5gnfCEQ-8" value="parent" style="text;html=1;align=center;verticalAlign=middle;resizable=0;points=[];autosize=1;strokeColor=none;fillColor=none;" parent="bX12A1Q2ex_Rd5gnfCEQ-11" vertex="1">
          <mxGeometry x="193" y="228" width="60" height="30" as="geometry" />
        </mxCell>
        <mxCell id="ODYKEcNakLckmjIx6G09-11" value="" style="group" vertex="1" connectable="0" parent="1">
          <mxGeometry x="1020" y="585" width="380" height="484" as="geometry" />
        </mxCell>
        <mxCell id="UzzwOPRDWCMKMTii6RTC-186" value="Comment&amp;nbsp;" style="ellipse;whiteSpace=wrap;html=1;container=0;" parent="ODYKEcNakLckmjIx6G09-11" vertex="1">
          <mxGeometry y="404" width="120" height="80" as="geometry" />
        </mxCell>
        <mxCell id="ODYKEcNakLckmjIx6G09-4" value="" style="group" vertex="1" connectable="0" parent="ODYKEcNakLckmjIx6G09-11">
          <mxGeometry x="60" width="320" height="460" as="geometry" />
        </mxCell>
        <mxCell id="cT-F6GylOhjwORmzsdic-97" value="receives" style="rhombus;whiteSpace=wrap;html=1;" parent="ODYKEcNakLckmjIx6G09-4" vertex="1">
          <mxGeometry x="20" width="80" height="90" as="geometry" />
        </mxCell>
        <mxCell id="UzzwOPRDWCMKMTii6RTC-8" value="Review&amp;nbsp;" style="rounded=0;whiteSpace=wrap;html=1;container=0;" parent="ODYKEcNakLckmjIx6G09-4" vertex="1">
          <mxGeometry y="220" width="120" height="60" as="geometry" />
        </mxCell>
        <mxCell id="UzzwOPRDWCMKMTii6RTC-184" value="&lt;u&gt;Review_Id&lt;/u&gt;" style="ellipse;whiteSpace=wrap;html=1;container=0;" parent="ODYKEcNakLckmjIx6G09-4" vertex="1">
          <mxGeometry x="200" y="324" width="120" height="80" as="geometry" />
        </mxCell>
        <mxCell id="UzzwOPRDWCMKMTii6RTC-185" value="Rating&amp;nbsp;" style="ellipse;whiteSpace=wrap;html=1;container=0;" parent="ODYKEcNakLckmjIx6G09-4" vertex="1">
          <mxGeometry x="160" y="110" width="120" height="80" as="geometry" />
        </mxCell>
        <mxCell id="UzzwOPRDWCMKMTii6RTC-187" value="Review _date" style="ellipse;whiteSpace=wrap;html=1;container=0;" parent="ODYKEcNakLckmjIx6G09-4" vertex="1">
          <mxGeometry x="90" y="380" width="120" height="80" as="geometry" />
        </mxCell>
        <mxCell id="UzzwOPRDWCMKMTii6RTC-188" value="Is_verified" style="ellipse;whiteSpace=wrap;html=1;container=0;" parent="ODYKEcNakLckmjIx6G09-4" vertex="1">
          <mxGeometry x="160" y="210" width="120" height="80" as="geometry" />
        </mxCell>
        <mxCell id="UzzwOPRDWCMKMTii6RTC-189" value="" style="endArrow=none;html=1;rounded=0;" parent="ODYKEcNakLckmjIx6G09-4" edge="1">
          <mxGeometry width="50" height="50" relative="1" as="geometry">
            <mxPoint x="120" y="280" as="sourcePoint" />
            <mxPoint x="220" y="340" as="targetPoint" />
          </mxGeometry>
        </mxCell>
        <mxCell id="UzzwOPRDWCMKMTii6RTC-190" value="" style="endArrow=none;html=1;rounded=0;exitX=0.406;exitY=1.02;exitDx=0;exitDy=0;entryX=0.5;entryY=0;entryDx=0;entryDy=0;exitPerimeter=0;" parent="ODYKEcNakLckmjIx6G09-4" source="UzzwOPRDWCMKMTii6RTC-8" target="UzzwOPRDWCMKMTii6RTC-187" edge="1">
          <mxGeometry width="50" height="50" relative="1" as="geometry">
            <mxPoint x="-120" y="230" as="sourcePoint" />
            <mxPoint x="-70" y="180" as="targetPoint" />
          </mxGeometry>
        </mxCell>
        <mxCell id="UzzwOPRDWCMKMTii6RTC-192" value="" style="endArrow=none;html=1;rounded=0;exitX=1;exitY=0;exitDx=0;exitDy=0;entryX=0;entryY=1;entryDx=0;entryDy=0;" parent="ODYKEcNakLckmjIx6G09-4" source="UzzwOPRDWCMKMTii6RTC-8" target="UzzwOPRDWCMKMTii6RTC-185" edge="1">
          <mxGeometry width="50" height="50" relative="1" as="geometry">
            <mxPoint x="-120" y="230" as="sourcePoint" />
            <mxPoint x="-70" y="180" as="targetPoint" />
          </mxGeometry>
        </mxCell>
        <mxCell id="UzzwOPRDWCMKMTii6RTC-193" value="" style="endArrow=none;html=1;rounded=0;exitX=1;exitY=0.75;exitDx=0;exitDy=0;entryX=0;entryY=0.5;entryDx=0;entryDy=0;" parent="ODYKEcNakLckmjIx6G09-4" source="UzzwOPRDWCMKMTii6RTC-8" target="UzzwOPRDWCMKMTii6RTC-188" edge="1">
          <mxGeometry width="50" height="50" relative="1" as="geometry">
            <mxPoint x="-120" y="230" as="sourcePoint" />
            <mxPoint x="-70" y="180" as="targetPoint" />
          </mxGeometry>
        </mxCell>
        <mxCell id="cT-F6GylOhjwORmzsdic-98" value="" style="endArrow=none;html=1;rounded=0;entryX=0.5;entryY=1;entryDx=0;entryDy=0;exitX=0.5;exitY=0;exitDx=0;exitDy=0;" parent="ODYKEcNakLckmjIx6G09-4" source="UzzwOPRDWCMKMTii6RTC-8" target="cT-F6GylOhjwORmzsdic-97" edge="1">
          <mxGeometry width="50" height="50" relative="1" as="geometry">
            <mxPoint x="-10" y="100" as="sourcePoint" />
            <mxPoint x="40" y="50" as="targetPoint" />
          </mxGeometry>
        </mxCell>
        <mxCell id="hly1FXEma_6dyXH1mRlF-19" value="M" style="text;html=1;align=center;verticalAlign=middle;resizable=0;points=[];autosize=1;strokeColor=none;fillColor=none;" parent="ODYKEcNakLckmjIx6G09-4" vertex="1">
          <mxGeometry x="85" y="168" width="30" height="30" as="geometry" />
        </mxCell>
        <mxCell id="UzzwOPRDWCMKMTii6RTC-191" value="" style="endArrow=none;html=1;rounded=0;exitX=0.25;exitY=1;exitDx=0;exitDy=0;entryX=0.5;entryY=0;entryDx=0;entryDy=0;" parent="ODYKEcNakLckmjIx6G09-11" source="UzzwOPRDWCMKMTii6RTC-8" target="UzzwOPRDWCMKMTii6RTC-186" edge="1">
          <mxGeometry width="50" height="50" relative="1" as="geometry">
            <mxPoint x="-60" y="230" as="sourcePoint" />
            <mxPoint x="150" y="180" as="targetPoint" />
          </mxGeometry>
        </mxCell>
        <mxCell id="ODYKEcNakLckmjIx6G09-13" value="" style="endArrow=none;html=1;rounded=0;" edge="1" parent="1">
          <mxGeometry width="50" height="50" relative="1" as="geometry">
            <mxPoint x="640" y="220" as="sourcePoint" />
            <mxPoint x="920" y="270" as="targetPoint" />
          </mxGeometry>
        </mxCell>
        <mxCell id="ODYKEcNakLckmjIx6G09-14" value="1" style="text;html=1;align=center;verticalAlign=middle;resizable=0;points=[];autosize=1;strokeColor=none;fillColor=none;" vertex="1" parent="1">
          <mxGeometry x="1000" y="360" width="30" height="30" as="geometry" />
        </mxCell>
        <mxCell id="ODYKEcNakLckmjIx6G09-19" value="" style="group" vertex="1" connectable="0" parent="1">
          <mxGeometry x="220" y="-1130" width="510" height="456" as="geometry" />
        </mxCell>
        <mxCell id="UzzwOPRDWCMKMTii6RTC-17" value="" style="endArrow=none;html=1;rounded=0;" parent="ODYKEcNakLckmjIx6G09-19" source="UzzwOPRDWCMKMTii6RTC-19" edge="1">
          <mxGeometry width="50" height="50" relative="1" as="geometry">
            <mxPoint x="230" y="530" as="sourcePoint" />
            <mxPoint x="230" y="280" as="targetPoint" />
            <Array as="points" />
          </mxGeometry>
        </mxCell>
        <mxCell id="UzzwOPRDWCMKMTii6RTC-19" value="ISA" style="rhombus;whiteSpace=wrap;html=1;container=0;" parent="ODYKEcNakLckmjIx6G09-19" vertex="1">
          <mxGeometry x="190" y="376" width="80" height="80" as="geometry" />
        </mxCell>
        <mxCell id="UzzwOPRDWCMKMTii6RTC-16" value="Person" style="rounded=0;whiteSpace=wrap;html=1;container=0;" parent="ODYKEcNakLckmjIx6G09-19" vertex="1">
          <mxGeometry x="174" y="220" width="120" height="60" as="geometry" />
        </mxCell>
        <mxCell id="UzzwOPRDWCMKMTii6RTC-25" value="&lt;u&gt;Person_Id&lt;/u&gt;" style="ellipse;whiteSpace=wrap;html=1;container=0;" parent="ODYKEcNakLckmjIx6G09-19" vertex="1">
          <mxGeometry x="80" y="60" width="120" height="80" as="geometry" />
        </mxCell>
        <mxCell id="UzzwOPRDWCMKMTii6RTC-26" value="Full_name" style="ellipse;whiteSpace=wrap;html=1;container=0;" parent="ODYKEcNakLckmjIx6G09-19" vertex="1">
          <mxGeometry x="174" width="120" height="80" as="geometry" />
        </mxCell>
        <mxCell id="UzzwOPRDWCMKMTii6RTC-27" value="Email" style="ellipse;whiteSpace=wrap;html=1;container=0;" parent="ODYKEcNakLckmjIx6G09-19" vertex="1">
          <mxGeometry x="285" y="80" width="120" height="80" as="geometry" />
        </mxCell>
        <mxCell id="UzzwOPRDWCMKMTii6RTC-28" value="Phone_numbers" style="ellipse;whiteSpace=wrap;html=1;container=0;" parent="ODYKEcNakLckmjIx6G09-19" vertex="1">
          <mxGeometry y="130" width="120" height="80" as="geometry" />
        </mxCell>
        <mxCell id="UzzwOPRDWCMKMTii6RTC-29" value="Created_at" style="ellipse;whiteSpace=wrap;html=1;container=0;" parent="ODYKEcNakLckmjIx6G09-19" vertex="1">
          <mxGeometry x="390" y="120" width="120" height="80" as="geometry" />
        </mxCell>
        <mxCell id="UzzwOPRDWCMKMTii6RTC-30" value="" style="endArrow=none;html=1;rounded=0;entryX=0.442;entryY=1;entryDx=0;entryDy=0;entryPerimeter=0;exitX=0.5;exitY=0;exitDx=0;exitDy=0;" parent="ODYKEcNakLckmjIx6G09-19" target="UzzwOPRDWCMKMTii6RTC-26" edge="1" source="UzzwOPRDWCMKMTii6RTC-16">
          <mxGeometry width="50" height="50" relative="1" as="geometry">
            <mxPoint x="227" y="140" as="sourcePoint" />
            <mxPoint x="280" y="190" as="targetPoint" />
          </mxGeometry>
        </mxCell>
        <mxCell id="UzzwOPRDWCMKMTii6RTC-31" value="" style="endArrow=none;html=1;rounded=0;exitX=1;exitY=0;exitDx=0;exitDy=0;" parent="ODYKEcNakLckmjIx6G09-19" source="UzzwOPRDWCMKMTii6RTC-16" edge="1">
          <mxGeometry width="50" height="50" relative="1" as="geometry">
            <mxPoint x="230" y="240" as="sourcePoint" />
            <mxPoint x="330" y="160" as="targetPoint" />
          </mxGeometry>
        </mxCell>
        <mxCell id="UzzwOPRDWCMKMTii6RTC-32" value="" style="endArrow=none;html=1;rounded=0;entryX=-0.025;entryY=0.6;entryDx=0;entryDy=0;entryPerimeter=0;exitX=1;exitY=0.5;exitDx=0;exitDy=0;" parent="ODYKEcNakLckmjIx6G09-19" source="UzzwOPRDWCMKMTii6RTC-16" target="UzzwOPRDWCMKMTii6RTC-29" edge="1">
          <mxGeometry width="50" height="50" relative="1" as="geometry">
            <mxPoint x="230" y="240" as="sourcePoint" />
            <mxPoint x="280" y="190" as="targetPoint" />
          </mxGeometry>
        </mxCell>
        <mxCell id="UzzwOPRDWCMKMTii6RTC-33" value="" style="endArrow=none;html=1;rounded=0;" parent="ODYKEcNakLckmjIx6G09-19" edge="1">
          <mxGeometry width="50" height="50" relative="1" as="geometry">
            <mxPoint x="210" y="210" as="sourcePoint" />
            <mxPoint x="160" y="150" as="targetPoint" />
          </mxGeometry>
        </mxCell>
        <mxCell id="UzzwOPRDWCMKMTii6RTC-34" value="" style="endArrow=none;html=1;rounded=0;exitX=0;exitY=0.25;exitDx=0;exitDy=0;" parent="ODYKEcNakLckmjIx6G09-19" source="UzzwOPRDWCMKMTii6RTC-16" edge="1">
          <mxGeometry width="50" height="50" relative="1" as="geometry">
            <mxPoint x="169.03999999999996" y="166" as="sourcePoint" />
            <mxPoint x="120" y="190" as="targetPoint" />
          </mxGeometry>
        </mxCell>
        <mxCell id="bX12A1Q2ex_Rd5gnfCEQ-3" value="" style="endArrow=none;html=1;rounded=0;entryX=0;entryY=1;entryDx=0;entryDy=0;exitX=1;exitY=0.5;exitDx=0;exitDy=0;" parent="1" source="bX12A1Q2ex_Rd5gnfCEQ-2" target="UzzwOPRDWCMKMTii6RTC-3" edge="1">
          <mxGeometry width="50" height="50" relative="1" as="geometry">
            <mxPoint x="1033" y="241" as="sourcePoint" />
            <mxPoint x="1083" y="191" as="targetPoint" />
          </mxGeometry>
        </mxCell>
        <mxCell id="ODYKEcNakLckmjIx6G09-24" value="M" style="text;html=1;align=center;verticalAlign=middle;resizable=0;points=[];autosize=1;strokeColor=none;fillColor=none;" vertex="1" parent="1">
          <mxGeometry x="675" y="108" width="30" height="30" as="geometry" />
        </mxCell>
        <mxCell id="ODYKEcNakLckmjIx6G09-25" value="" style="endArrow=none;html=1;rounded=0;entryX=0.5;entryY=1;entryDx=0;entryDy=0;" edge="1" parent="1" target="UzzwOPRDWCMKMTii6RTC-19">
          <mxGeometry width="50" height="50" relative="1" as="geometry">
            <mxPoint x="450" y="-570" as="sourcePoint" />
            <mxPoint x="530" y="-510" as="targetPoint" />
          </mxGeometry>
        </mxCell>
      </root>
    </mxGraphModel>
  </diagram>
</mxfile>
